  0
SECTION
  2
HEADER
  9
$ACADVER
  1
AC1003
  9
$EXTMIN
 10
-0.0413315432374577
 20
13.0559725752116
  9
$EXTMAX
 10
3.16887395747787
 20
0.0599275594018085
  9
$INSUNITS
 70
1
  9
$INSBASE
 10
1.56377120712021
 20
6.55795006730671
999
Created with OMAX LAYOUT for Windows. (www.omax.com) 2021-08-05
  0
ENDSEC
  0
SECTION
  2
TABLES
  0
TABLE
  2
LAYER
 70
    10
  0
LAYER
  2
0
 70
     0
 62
     7
  6
CONTINUOUS
  0
LAYER
  2
1
 70
     0
 62
     7
  6
CONTINUOUS
  0
LAYER
  2
2
 70
     0
 62
     7
  6
CONTINUOUS
  0
LAYER
  2
3
 70
     0
 62
     7
  6
CONTINUOUS
  0
LAYER
  2
4
 70
     0
 62
     7
  6
CONTINUOUS
  0
LAYER
  2
5
 70
     0
 62
     7
  6
CONTINUOUS
  0
LAYER
  2
6
 70
     0
 62
     7
  6
CONTINUOUS
  0
LAYER
  2
7
 70
     0
 62
     7
  6
CONTINUOUS
  0
LAYER
  2
8
 70
     0
 62
     7
  6
CONTINUOUS
  0
LAYER
  2
9
 70
     0
 62
     7
  6
CONTINUOUS
  0
LAYER
  2
10
 70
     0
 62
     7
  6
CONTINUOUS
  0
LAYER
  2
11
 70
     0
 62
     7
  6
CONTINUOUS
  0
LAYER
  2
12
 70
     0
 62
     7
  6
CONTINUOUS
  0
LAYER
  2
13
 70
     0
 62
     7
  6
CONTINUOUS
  0
LAYER
  2
14
 70
     0
 62
     7
  6
CONTINUOUS
  0
LAYER
  2
15
 70
     0
 62
     7
  6
CONTINUOUS
  0
LAYER
  2
16
 70
     0
 62
     7
  6
CONTINUOUS
  0
LAYER
  2
17
 70
     0
 62
     7
  6
CONTINUOUS
  0
LAYER
  2
18
 70
     0
 62
     7
  6
CONTINUOUS
  0
LAYER
  2
19
 70
     0
 62
     7
  6
CONTINUOUS
  0
LAYER
  2
20
 70
     0
 62
     7
  6
CONTINUOUS
  0
LAYER
  2
21
 70
     0
 62
     7
  6
CONTINUOUS
  0
LAYER
  2
22
 70
     0
 62
     7
  6
CONTINUOUS
  0
LAYER
  2
23
 70
     0
 62
     7
  6
CONTINUOUS
  0
LAYER
  2
24
 70
     0
 62
     7
  6
CONTINUOUS
  0
LAYER
  2
25
 70
     0
 62
     7
  6
CONTINUOUS
  0
LAYER
  2
26
 70
     0
 62
     7
  6
CONTINUOUS
  0
LAYER
  2
27
 70
     0
 62
     7
  6
CONTINUOUS
  0
LAYER
  2
28
 70
     0
 62
     7
  6
CONTINUOUS
  0
LAYER
  2
29
 70
     0
 62
     7
  6
CONTINUOUS
  0
LAYER
  2
30
 70
     0
 62
     7
  6
CONTINUOUS
  0
LAYER
  2
31
 70
     0
 62
     7
  6
CONTINUOUS
  0
ENDTAB
  0
ENDSEC
  0
SECTION
  2
ENTITIES
  0
LINE
  8
0
  6
CONTINUOUS
 62
0
 10
-0.0413315432374577
 20
0.0599275594018085
 30
0.0
 11
0.278063793662822
 21
0.193746586068845
 31
0.0
  0
LINE
  8
0
  6
CONTINUOUS
 62
0
 10
0.282210751613913
 20
0.194857760102886
 30
0.0
 11
2.94087435643277
 21
0.868388710557957
 31
0.0
  0
LINE
  8
0
  6
CONTINUOUS
 62
0
 10
2.94959823392378
 20
0.768483888401338
 30
0.0
 11
2.94951350325952
 21
0.19326630009108
 31
0.0
  0
LINE
  8
0
  6
CONTINUOUS
 62
0
 10
2.94530275000476
 20
0.192428729192846
 30
0.0
 11
1.87957075034219
 21
0.19326630009108
 31
0.0
  0
LINE
  8
0
  6
CONTINUOUS
 62
0
 10
1.87535999708743
 20
0.192428729192846
 30
0.0
 11
1.3516903544173
 21
0.192261814630677
 31
0.0
  0
LINE
  8
0
  6
CONTINUOUS
 62
0
 10
1.35280152845134
 20
0.196408772581768
 30
0.0
 11
1.60829469669984
 21
1.15353918384286
 31
0.0
  0
LINE
  8
0
  6
CONTINUOUS
 62
0
 10
1.31241696142902
 20
3.38565067731313
 30
0.0
 11
0.238855153670138
 21
3.32649025146655
 31
0.0
  0
LINE
  8
0
  6
CONTINUOUS
 62
0
 10
1.88791353714042
 20
3.40371234496859
 30
0.0
 11
2.95396017268274
 21
6.28481597636861
 31
0.0
  0
LINE
  8
0
  6
CONTINUOUS
 62
0
 10
2.9452362952007
 20
6.38472079852601
 30
0.0
 11
2.988687260571
 21
6.80818153671628
 31
0.0
  0
LINE
  8
0
  6
CONTINUOUS
 62
0
 10
2.9065290853726
 20
6.75067402610511
 30
0.0
 11
1.92387373198353
 21
6.31311413358214
 31
0.0
  0
LINE
  8
0
  6
CONTINUOUS
 62
0
 10
1.31068536791016
 20
6.36291048128428
 30
0.0
 11
0.28666805780479
 21
6.28636181776625
 31
0.0
  0
LINE
  8
0
  6
CONTINUOUS
 62
0
 10
0.277944180322752
 20
6.38626663992366
 30
0.0
 11
0.238855153670138
 21
9.2863327711516
 31
0.0
  0
LINE
  8
0
  6
CONTINUOUS
 62
0
 10
0.321013328875587
 20
9.3438402817527
 30
0.0
 11
1.37183225242557
 21
9.26972901098081
 31
0.0
  0
LINE
  8
0
  6
CONTINUOUS
 62
0
 10
1.33754836319655
 20
9.36397175323694
 30
0.0
 11
1.30580147762334
 21
9.78140017426661
 31
0.0
  0
LINE
  8
0
  6
CONTINUOUS
 62
0
 10
1.87965548101543
 20
9.70824766792851
 30
0.0
 11
1.87048288503658
 21
9.26479631112101
 31
0.0
  0
LINE
  8
0
  6
CONTINUOUS
 62
0
 10
1.88791353714042
 20
9.36355486465365
 30
0.0
 11
2.99381648490327
 21
12.2729566532708
 31
0.0
  0
LINE
  8
0
  6
CONTINUOUS
 62
0
 10
2.9059019345138
 20
12.3212071595733
 30
0.0
 11
2.39719084339122
 21
11.8668850879418
 31
0.0
  0
LINE
  8
0
  6
CONTINUOUS
 62
0
 10
2.40812505669613
 20
11.9665722110221
 30
0.0
 11
2.94955622842568
 21
12.8217398531579
 31
0.0
  0
LINE
  8
0
  6
CONTINUOUS
 62
0
 10
2.94527217380868
 20
12.8214590613833
 30
0.0
 11
1.87962113504112
 21
12.821599557555
 31
0.0
  0
LINE
  8
0
  6
CONTINUOUS
 62
0
 10
1.8753278882532
 20
12.821599557555
 30
0.0
 11
1.35323344547166
 21
12.8249810095996
 31
0.0
  0
LINE
  8
0
  6
CONTINUOUS
 62
0
 10
1.3510868220777
 20
12.8212629488166
 30
0.0
 11
0.822705831942583
 21
11.8672863422908
 31
0.0
  0
LINE
  8
0
  6
CONTINUOUS
 62
0
 10
0.813981954460544
 20
11.9671911644482
 30
0.0
 11
0.28666805780479
 21
12.2462043374513
 31
0.0
  0
LINE
  8
0
  6
CONTINUOUS
 62
0
 10
0.277944180322752
 20
12.3461091596087
 30
0.0
 11
0.278039547761678
 21
12.8236089030069
 31
0.0
  0
LINE
  8
0
  6
CONTINUOUS
 62
0
 10
0.282186505712707
 20
12.8224977289727
 30
0.0
 11
0.651439075837197
 21
12.7556519054139
 31
0.0
  0
ARC
  8
3
  6
CONTINUOUS
 62
3
 10
0.280125149692763
 20
0.194347416554461
 30
0.0
 40
0.0492125984201072
 50
284.999999994075
 51
15.0000000059248
  0
ARC
  8
3
  6
CONTINUOUS
 62
3
 10
0.280125149686239
 20
0.194347416560269
 30
0.0
 40
0.0492125984249054
 50
14.9999999974273
 51
180.000000002572
  0
ARC
  8
3
  6
CONTINUOUS
 62
3
 10
0.280125149684834
 20
0.19434741655585
 30
0.0
 40
0.0492125984235009
 50
179.999999997427
 51
285.000000002572
  0
ARC
  8
3
  6
CONTINUOUS
 62
3
 10
2.94741726457112
 20
0.816956674165618
 30
0.0
 40
0.098425196843764
 50
269.999999996141
 51
3.85850899514555E-9
  0
LINE
  8
3
  6
CONTINUOUS
 62
3
 10
3.04584246141488
 20
0.816956674172246
 30
0.0
 11
3.04584246141488
 21
3.35632675291239
 31
0.0
  0
ARC
  8
3
  6
CONTINUOUS
 62
3
 10
2.94741726456449
 20
3.3563267529124
 30
0.0
 40
0.0984251968503926
 50
359.999999999999
 51
180
  0
LINE
  8
3
  6
CONTINUOUS
 62
3
 10
2.84899206771409
 20
3.35632675291239
 30
0.0
 11
2.84899206771409
 21
0.816956674172246
 31
0.0
  0
ARC
  8
3
  6
CONTINUOUS
 62
3
 10
2.94741726455786
 20
0.816956674165617
 30
0.0
 40
0.098425196843764
 50
179.999999996141
 51
270.000000003858
  0
ARC
  8
3
  6
CONTINUOUS
 62
3
 10
2.94741726456117
 20
0.192801575163518
 30
0.0
 40
0.0492125984218821
 50
101.249999996825
 51
180.000000003577
  0
ARC
  8
3
  6
CONTINUOUS
 62
3
 10
2.94741726456449
 20
0.192801575160444
 30
0.0
 40
0.0492125984251963
 50
179.999999999999
 51
359.999999999999
  0
ARC
  8
3
  6
CONTINUOUS
 62
3
 10
2.94741726456728
 20
0.192801575164193
 30
0.0
 40
0.0492125984224102
 50
359.999999995636
 51
101.250000003944
  0
ARC
  8
3
  6
CONTINUOUS
 62
3
 10
1.87747451164385
 20
0.192801575163518
 30
0.0
 40
0.049212598421882
 50
101.249999996825
 51
180.000000003577
  0
ARC
  8
3
  6
CONTINUOUS
 62
3
 10
1.87747451164716
 20
0.192801575160444
 30
0.0
 40
0.0492125984251963
 50
179.999999999999
 51
359.999999999999
  0
ARC
  8
3
  6
CONTINUOUS
 62
3
 10
1.87747451164995
 20
0.192801575164193
 30
0.0
 40
0.0492125984224102
 50
359.999999995636
 51
101.250000003944
  0
ARC
  8
3
  6
CONTINUOUS
 62
3
 10
1.35220069796433
 20
0.194347416559756
 30
0.0
 40
0.0492125984235007
 50
344.999999997427
 51
90.0000000025724
  0
ARC
  8
3
  6
CONTINUOUS
 62
3
 10
1.35220069795881
 20
0.194347416561374
 30
0.0
 40
0.049212598421882
 50
89.9999999961411
 51
180.000000003859
  0
ARC
  8
3
  6
CONTINUOUS
 62
3
 10
1.35220069796183
 20
0.19434741655585
 30
0.0
 40
0.0492125984249054
 50
179.999999997427
 51
345.000000002572
  0
ARC
  8
3
  6
CONTINUOUS
 62
3
 10
1.61483760480742
 20
1.04486216453166
 30
0.0
 40
0.0411802139260841
 50
269.999999996141
 51
3.85850899514555E-9
  0
LINE
  8
3
  6
CONTINUOUS
 62
3
 10
1.65601781873378
 20
1.04486216453444
 30
0.0
 11
1.65601781873378
 21
11.9969269549754
 31
0.0
  0
ARC
  8
3
  6
CONTINUOUS
 62
3
 10
1.61483760480465
 20
11.9969269549754
 30
0.0
 40
0.0411802139288575
 50
359.999999999999
 51
180
  0
LINE
  8
3
  6
CONTINUOUS
 62
3
 10
1.57365739087551
 20
11.9969269549754
 30
0.0
 11
1.57365739087551
 21
1.04486216453444
 31
0.0
  0
ARC
  8
3
  6
CONTINUOUS
 62
3
 10
1.61483760480187
 20
1.04486216453166
 30
0.0
 40
0.0411802139260841
 50
179.999999996141
 51
270.000000003858
  0
ARC
  8
3
  6
CONTINUOUS
 62
3
 10
1.35220069795486
 20
3.35787259431356
 30
0.0
 40
0.0984251968431387
 50
142.499999998364
 51
180.00000000205
  0
LINE
  8
3
  6
CONTINUOUS
 62
3
 10
1.25377550111173
 20
3.35787259431004
 30
0.0
 11
1.25377550111173
 21
0.81850251556989
 31
0.0
  0
ARC
  8
3
  6
CONTINUOUS
 62
3
 10
1.35220069796212
 20
0.818502515569889
 30
0.0
 40
0.0984251968503962
 50
179.999999999999
 51
359.999999999999
  0
LINE
  8
3
  6
CONTINUOUS
 62
3
 10
1.45062589481252
 20
0.81850251556989
 30
0.0
 11
1.45062589481252
 21
3.35787259431004
 31
0.0
  0
ARC
  8
3
  6
CONTINUOUS
 62
3
 10
1.3522006979679
 20
3.35787259432811
 30
0.0
 40
0.09842519684462
 50
359.999999989478
 51
142.500000009703
  0
ARC
  8
3
  6
CONTINUOUS
 62
3
 10
0.280125149685349
 20
3.35787259431446
 30
0.0
 40
0.0984251968492085
 50
29.9999999974273
 51
180.000000002572
  0
LINE
  8
3
  6
CONTINUOUS
 62
3
 10
0.181699952836141
 20
3.35787259431004
 30
0.0
 11
0.181699952836141
 21
0.81850251556989
 31
0.0
  0
ARC
  8
3
  6
CONTINUOUS
 62
3
 10
0.280125149686533
 20
0.818502515569889
 30
0.0
 40
0.0984251968503926
 50
179.999999999999
 51
359.999999999999
  0
LINE
  8
3
  6
CONTINUOUS
 62
3
 10
0.378550346536926
 20
0.81850251556989
 30
0.0
 11
0.378550346536926
 21
3.35787259431004
 31
0.0
  0
ARC
  8
3
  6
CONTINUOUS
 62
3
 10
0.280125149719518
 20
3.35787259431888
 30
0.0
 40
0.0984251968174081
 50
359.999999994855
 51
30.0000000051448
  0
ARC
  8
3
  6
CONTINUOUS
 62
3
 10
1.87747451164377
 20
3.35632675291681
 30
0.0
 40
0.0984251968470053
 50
74.9999999974273
 51
180.000000002572
  0
LINE
  8
3
  6
CONTINUOUS
 62
3
 10
1.77904931479677
 20
3.35632675291239
 30
0.0
 11
1.77904931479677
 21
0.816956674172246
 31
0.0
  0
ARC
  8
3
  6
CONTINUOUS
 62
3
 10
1.87747451164716
 20
0.816956674172245
 30
0.0
 40
0.0984251968503962
 50
179.999999999999
 51
359.999999999999
  0
LINE
  8
3
  6
CONTINUOUS
 62
3
 10
1.97589970849756
 20
0.816956674172246
 30
0.0
 11
1.97589970849756
 21
3.35632675291239
 31
0.0
  0
ARC
  8
3
  6
CONTINUOUS
 62
3
 10
1.87747451165868
 20
3.35632675292123
 30
0.0
 40
0.098425196838878
 50
359.999999994855
 51
75.0000000051447
  0
ARC
  8
3
  6
CONTINUOUS
 62
3
 10
2.94741726455786
 20
6.33624801276154
 30
0.0
 40
0.098425196843764
 50
89.9999999961411
 51
180.000000003859
  0
LINE
  8
3
  6
CONTINUOUS
 62
3
 10
2.84899206771409
 20
6.33624801275491
 30
0.0
 11
2.84899206771409
 21
3.79687793401476
 31
0.0
  0
ARC
  8
3
  6
CONTINUOUS
 62
3
 10
2.94741726456449
 20
3.79687793401476
 30
0.0
 40
0.0984251968503926
 50
179.999999999999
 51
359.999999999999
  0
LINE
  8
3
  6
CONTINUOUS
 62
3
 10
3.04584246141488
 20
3.79687793401476
 30
0.0
 11
3.04584246141488
 21
6.33624801275491
 31
0.0
  0
ARC
  8
3
  6
CONTINUOUS
 62
3
 10
2.94741726457111
 20
6.33624801276154
 30
0.0
 40
0.098425196843764
 50
359.999999996141
 51
90.0000000038585
  0
ARC
  8
3
  6
CONTINUOUS
 62
3
 10
2.94741726456685
 20
6.77679919384843
 30
0.0
 40
0.0984251968480244
 50
209.999999994855
 51
5.14473803054813E-9
  0
LINE
  8
3
  6
CONTINUOUS
 62
3
 10
3.04584246141488
 20
6.77679919385727
 30
0.0
 11
3.04584246141488
 21
9.31616927259745
 31
0.0
  0
ARC
  8
3
  6
CONTINUOUS
 62
3
 10
2.94741726456449
 20
9.31616927259745
 30
0.0
 40
0.0984251968503926
 50
359.999999999999
 51
180
  0
LINE
  8
3
  6
CONTINUOUS
 62
3
 10
2.84899206771409
 20
9.31616927259745
 30
0.0
 11
2.84899206771409
 21
6.77679919385727
 31
0.0
  0
ARC
  8
3
  6
CONTINUOUS
 62
3
 10
2.94741726454799
 20
6.77679919385285
 30
0.0
 40
0.0984251968339005
 50
179.999999997427
 51
210.000000002572
  0
ARC
  8
3
  6
CONTINUOUS
 62
3
 10
1.87747451163543
 20
6.33624801275827
 30
0.0
 40
0.0984251968386604
 50
146.249999997723
 51
180.000000001958
  0
LINE
  8
3
  6
CONTINUOUS
 62
3
 10
1.77904931479677
 20
6.33624801275491
 30
0.0
 11
1.77904931479677
 21
3.79687793401476
 31
0.0
  0
ARC
  8
3
  6
CONTINUOUS
 62
3
 10
1.87747451164716
 20
3.79687793401476
 30
0.0
 40
0.0984251968503962
 50
179.999999999999
 51
359.999999999999
  0
LINE
  8
3
  6
CONTINUOUS
 62
3
 10
1.97589970849756
 20
3.79687793401476
 30
0.0
 11
1.97589970849756
 21
6.33624801275491
 31
0.0
  0
ARC
  8
3
  6
CONTINUOUS
 62
3
 10
1.87747451164998
 20
6.336248012764
 30
0.0
 40
0.0984251968475781
 50
359.999999994705
 51
146.250000005203
  0
ARC
  8
3
  6
CONTINUOUS
 62
3
 10
1.35220069795039
 20
6.33779385415592
 30
0.0
 40
0.0984251968386604
 50
146.249999997723
 51
180.000000001958
  0
LINE
  8
3
  6
CONTINUOUS
 62
3
 10
1.25377550111173
 20
6.33779385415255
 30
0.0
 11
1.25377550111173
 21
3.7984237754124
 31
0.0
  0
ARC
  8
3
  6
CONTINUOUS
 62
3
 10
1.35220069796212
 20
3.7984237754124
 30
0.0
 40
0.0984251968503962
 50
179.999999999999
 51
359.999999999999
  0
LINE
  8
3
  6
CONTINUOUS
 62
3
 10
1.45062589481252
 20
3.7984237754124
 30
0.0
 11
1.45062589481252
 21
6.33779385415255
 31
0.0
  0
ARC
  8
3
  6
CONTINUOUS
 62
3
 10
1.35220069796494
 20
6.33779385416165
 30
0.0
 40
0.0984251968475781
 50
359.999999994705
 51
146.250000005203
  0
ARC
  8
3
  6
CONTINUOUS
 62
3
 10
0.280125149679904
 20
6.33779385415918
 30
0.0
 40
0.098425196843764
 50
89.9999999961411
 51
180.000000003859
  0
LINE
  8
3
  6
CONTINUOUS
 62
3
 10
0.181699952836141
 20
6.33779385415255
 30
0.0
 11
0.181699952836141
 21
3.7984237754124
 31
0.0
  0
ARC
  8
3
  6
CONTINUOUS
 62
3
 10
0.280125149686533
 20
3.7984237754124
 30
0.0
 40
0.0984251968503926
 50
179.999999999999
 51
359.999999999999
  0
LINE
  8
3
  6
CONTINUOUS
 62
3
 10
0.378550346536926
 20
3.7984237754124
 30
0.0
 11
0.378550346536926
 21
6.33779385415255
 31
0.0
  0
ARC
  8
3
  6
CONTINUOUS
 62
3
 10
0.280125149693162
 20
6.33779385415918
 30
0.0
 40
0.098425196843764
 50
359.999999996141
 51
90.0000000038585
  0
ARC
  8
3
  6
CONTINUOUS
 62
3
 10
0.280125149685349
 20
9.31771511399951
 30
0.0
 40
0.0984251968492085
 50
29.9999999974273
 51
180.000000002572
  0
LINE
  8
3
  6
CONTINUOUS
 62
3
 10
0.181699952836141
 20
9.31771511399509
 30
0.0
 11
0.181699952836141
 21
6.77834503525492
 31
0.0
  0
ARC
  8
3
  6
CONTINUOUS
 62
3
 10
0.280125149686533
 20
6.77834503525491
 30
0.0
 40
0.0984251968503926
 50
179.999999999999
 51
359.999999999999
  0
LINE
  8
3
  6
CONTINUOUS
 62
3
 10
0.378550346536926
 20
6.77834503525492
 30
0.0
 11
0.378550346536926
 21
9.31771511399509
 31
0.0
  0
ARC
  8
3
  6
CONTINUOUS
 62
3
 10
0.280125149719518
 20
9.31771511400393
 30
0.0
 40
0.0984251968174081
 50
359.999999994855
 51
30.0000000051448
  0
ARC
  8
3
  6
CONTINUOUS
 62
3
 10
1.35220069795825
 20
9.31771511400043
 30
0.0
 40
0.098425196846526
 50
104.999999998134
 51
180.000000003107
  0
LINE
  8
3
  6
CONTINUOUS
 62
3
 10
1.25377550111173
 20
9.31771511399509
 30
0.0
 11
1.25377550111173
 21
6.77834503525492
 31
0.0
  0
ARC
  8
3
  6
CONTINUOUS
 62
3
 10
1.35220069796212
 20
6.77834503525491
 30
0.0
 40
0.0984251968503962
 50
179.999999999999
 51
359.999999999999
  0
LINE
  8
3
  6
CONTINUOUS
 62
3
 10
1.45062589481252
 20
6.77834503525492
 30
0.0
 11
1.45062589481252
 21
9.31771511399509
 31
0.0
  0
ARC
  8
3
  6
CONTINUOUS
 62
3
 10
1.35220069797747
 20
9.31771511401746
 30
0.0
 40
0.0984251968350478
 50
359.999999986977
 51
105.000000011507
  0
ARC
  8
3
  6
CONTINUOUS
 62
3
 10
1.35220069798332
 20
9.75826629509148
 30
0.0
 40
0.0984251968291987
 50
326.249999995438
 51
3.47726226658789E-9
  0
LINE
  8
3
  6
CONTINUOUS
 62
3
 10
1.45062589481252
 20
9.75826629509746
 30
0.0
 11
1.45062589481252
 21
12.2976363738376
 31
0.0
  0
ARC
  8
3
  6
CONTINUOUS
 62
3
 10
1.35220069796212
 20
12.2976363738376
 30
0.0
 40
0.0984251968503962
 50
359.999999999999
 51
180
  0
LINE
  8
3
  6
CONTINUOUS
 62
3
 10
1.25377550111173
 20
12.2976363738376
 30
0.0
 11
1.25377550111173
 21
9.75826629509746
 31
0.0
  0
ARC
  8
3
  6
CONTINUOUS
 62
3
 10
1.35220069795959
 20
9.75826629508958
 30
0.0
 40
0.0984251968478694
 50
179.999999995416
 51
326.25000000403
  0
ARC
  8
3
  6
CONTINUOUS
 62
3
 10
1.87747451165379
 20
9.75672045369318
 30
0.0
 40
0.0984251968437675
 50
269.999999996141
 51
3.85850899514555E-9
  0
LINE
  8
3
  6
CONTINUOUS
 62
3
 10
1.97589970849756
 20
9.75672045369981
 30
0.0
 11
1.97589970849756
 21
12.29609053244
 31
0.0
  0
ARC
  8
3
  6
CONTINUOUS
 62
3
 10
1.87747451164716
 20
12.29609053244
 30
0.0
 40
0.0984251968503962
 50
359.999999999999
 51
180
  0
LINE
  8
3
  6
CONTINUOUS
 62
3
 10
1.77904931479677
 20
12.29609053244
 30
0.0
 11
1.77904931479677
 21
9.75672045369981
 31
0.0
  0
ARC
  8
3
  6
CONTINUOUS
 62
3
 10
1.87747451164053
 20
9.75672045369318
 30
0.0
 40
0.0984251968437675
 50
179.999999996141
 51
270.000000003858
  0
ARC
  8
3
  6
CONTINUOUS
 62
3
 10
1.87747451164377
 20
9.31616927260187
 30
0.0
 40
0.0984251968470053
 50
74.9999999974273
 51
180.000000002572
  0
LINE
  8
3
  6
CONTINUOUS
 62
3
 10
1.77904931479677
 20
9.31616927259745
 30
0.0
 11
1.77904931479677
 21
6.77679919385727
 31
0.0
  0
ARC
  8
3
  6
CONTINUOUS
 62
3
 10
1.87747451164716
 20
6.77679919385727
 30
0.0
 40
0.0984251968503962
 50
179.999999999999
 51
359.999999999999
  0
LINE
  8
3
  6
CONTINUOUS
 62
3
 10
1.97589970849756
 20
6.77679919385727
 30
0.0
 11
1.97589970849756
 21
9.31616927259745
 31
0.0
  0
ARC
  8
3
  6
CONTINUOUS
 62
3
 10
1.87747451165868
 20
9.31616927260629
 30
0.0
 40
0.098425196838878
 50
359.999999994855
 51
75.0000000051447
  0
ARC
  8
3
  6
CONTINUOUS
 62
3
 10
2.94741726455786
 20
12.2960905324415
 30
0.0
 40
0.0984251968437627
 50
146.249999998011
 51
180.000000000905
  0
LINE
  8
3
  6
CONTINUOUS
 62
3
 10
2.84899206771409
 20
12.29609053244
 30
0.0
 11
2.84899206771409
 21
9.75672045369981
 31
0.0
  0
ARC
  8
3
  6
CONTINUOUS
 62
3
 10
2.94741726456449
 20
9.75672045369981
 30
0.0
 40
0.0984251968503926
 50
179.999999999999
 51
359.999999999999
  0
LINE
  8
3
  6
CONTINUOUS
 62
3
 10
3.04584246141488
 20
9.75672045369981
 30
0.0
 11
3.04584246141488
 21
12.29609053244
 31
0.0
  0
ARC
  8
3
  6
CONTINUOUS
 62
3
 10
2.94741726456701
 20
12.2960905324478
 30
0.0
 40
0.0984251968478657
 50
359.999999995416
 51
146.250000004031
  0
ARC
  8
3
  6
CONTINUOUS
 62
3
 10
2.41244588809982
 20
11.9771152172753
 30
0.0
 40
0.0387690333449461
 50
78.7499999856101
 51
180.000000012697
  0
LINE
  8
3
  6
CONTINUOUS
 62
3
 10
2.37367685475346
 20
11.9771152172667
 30
0.0
 11
2.37367685475346
 21
1.03174754575491
 31
0.0
  0
ARC
  8
3
  6
CONTINUOUS
 62
3
 10
2.41244588810781
 20
1.03174754575491
 30
0.0
 40
0.0387690333529349
 50
179.999999999999
 51
359.999999999999
  0
LINE
  8
3
  6
CONTINUOUS
 62
3
 10
2.45121492145819
 20
1.03174754575491
 30
0.0
 11
2.45121492145819
 21
11.9771152172667
 31
0.0
  0
ARC
  8
3
  6
CONTINUOUS
 62
3
 10
2.41244588811445
 20
11.9771152172711
 30
0.0
 40
0.0387690333462507
 50
359.999999993569
 51
78.7500000080392
  0
ARC
  8
3
  6
CONTINUOUS
 62
3
 10
2.94741726455766
 20
12.8215527180748
 30
0.0
 40
0.049212598418366
 50
93.7499999918524
 51
180.000000010263
  0
ARC
  8
3
  6
CONTINUOUS
 62
3
 10
2.94741726456449
 20
12.821552718066
 30
0.0
 40
0.0492125984251963
 50
179.999999999999
 51
359.999999999999
  0
ARC
  8
3
  6
CONTINUOUS
 62
3
 10
2.94741726456836
 20
12.8215527180725
 30
0.0
 40
0.0492125984213218
 50
359.999999992368
 51
93.7500000041167
  0
ARC
  8
3
  6
CONTINUOUS
 62
3
 10
1.87747451164513
 20
12.8215527180675
 30
0.0
 40
0.0492125984236386
 50
89.9999999976362
 51
195.000000002364
  0
ARC
  8
3
  6
CONTINUOUS
 62
3
 10
1.87747451164774
 20
12.8215527180615
 30
0.0
 40
0.0492125984246146
 50
194.999999994855
 51
5.14475075276685E-9
  0
ARC
  8
3
  6
CONTINUOUS
 62
3
 10
1.87747451165048
 20
12.8215527180693
 30
0.0
 40
0.049212598421882
 50
359.999999996141
 51
90.0000000038585
  0
ARC
  8
3
  6
CONTINUOUS
 62
3
 10
1.35220069796102
 20
12.8230985594629
 30
0.0
 40
0.0492125984245584
 50
149.999999998713
 51
270.000000001286
  0
ARC
  8
3
  6
CONTINUOUS
 62
3
 10
1.35220069796544
 20
12.8230985594603
 30
0.0
 40
0.049212598421882
 50
269.999999996141
 51
3.85850899514555E-9
  0
ARC
  8
3
  6
CONTINUOUS
 62
3
 10
1.35220069796331
 20
12.823098559468
 30
0.0
 40
0.0492125984240122
 50
359.999999994855
 51
150.000000005145
  0
ARC
  8
3
  6
CONTINUOUS
 62
3
 10
0.816162923821643
 20
11.9773081444978
 30
0.0
 40
0.0398354310296791
 50
89.9999999961411
 51
180.000000003859
  0
LINE
  8
3
  6
CONTINUOUS
 62
3
 10
0.776327492792831
 20
11.9773081444951
 30
0.0
 11
0.776327492792831
 21
1.0910252653691
 31
0.0
  0
ARC
  8
3
  6
CONTINUOUS
 62
3
 10
0.816162923824326
 20
1.0910252653691
 30
0.0
 40
0.0398354310323619
 50
179.999999999999
 51
359.999999999999
  0
LINE
  8
3
  6
CONTINUOUS
 62
3
 10
0.855998354855828
 20
1.0910252653691
 30
0.0
 11
0.855998354855828
 21
11.9773081444951
 31
0.0
  0
ARC
  8
3
  6
CONTINUOUS
 62
3
 10
0.816162923827009
 20
11.9773081444978
 30
0.0
 40
0.0398354310296791
 50
359.999999996141
 51
90.0000000038585
  0
ARC
  8
3
  6
CONTINUOUS
 62
3
 10
0.280125149679904
 20
12.2976363738442
 30
0.0
 40
0.098425196843764
 50
89.9999999961411
 51
180.000000003859
  0
LINE
  8
3
  6
CONTINUOUS
 62
3
 10
0.181699952836141
 20
12.2976363738376
 30
0.0
 11
0.181699952836141
 21
9.75826629509746
 31
0.0
  0
ARC
  8
3
  6
CONTINUOUS
 62
3
 10
0.280125149686533
 20
9.75826629509745
 30
0.0
 40
0.0984251968503926
 50
179.999999999999
 51
359.999999999999
  0
LINE
  8
3
  6
CONTINUOUS
 62
3
 10
0.378550346536926
 20
9.75826629509746
 30
0.0
 11
0.378550346536926
 21
12.2976363738376
 31
0.0
  0
ARC
  8
3
  6
CONTINUOUS
 62
3
 10
0.280125149693162
 20
12.2976363738442
 30
0.0
 40
0.098425196843764
 50
359.999999996141
 51
90.0000000038585
  0
ARC
  8
3
  6
CONTINUOUS
 62
3
 10
0.280125149690565
 20
12.8230985594574
 30
0.0
 40
0.0492125984211616
 50
254.999999993678
 51
7.18441502555195E-9
  0
ARC
  8
3
  6
CONTINUOUS
 62
3
 10
0.28012514968653
 20
12.8230985594636
 30
0.0
 40
0.0492125984251963
 50
359.999999999999
 51
180
  0
ARC
  8
3
  6
CONTINUOUS
 62
3
 10
0.280125149683494
 20
12.8230985594603
 30
0.0
 40
0.0492125984221608
 50
179.999999996225
 51
255.000000002512
  0
LINE
  8
3
  6
CONTINUOUS
 62
3
 10
0.501581842599919
 20
12.7491089973091
 30
0.0
 11
0.501581842599919
 21
12.3647387360423
 31
0.0
  0
ARC
  8
3
  6
CONTINUOUS
 62
3
 10
0.529581842599914
 20
12.3647387360423
 30
0.0
 40
0.0279999999999951
 50
180.000000000007
 51
270.000000000007
  0
LINE
  8
3
  6
CONTINUOUS
 62
3
 10
0.529581842599917
 20
12.3367387360423
 30
0.0
 11
0.658217256572357
 21
12.3367387360423
 31
0.0
  0
ARC
  8
3
  6
CONTINUOUS
 62
3
 10
0.658217256572356
 20
12.2186284998218
 30
0.0
 40
0.118110236220474
 50
359.999999999999
 51
89.9999999999998
  0
LINE
  8
3
  6
CONTINUOUS
 62
3
 10
0.776327492792831
 20
12.2186284998218
 30
0.0
 11
0.776327492792831
 21
12.1398883423415
 31
0.0
  0
ARC
  8
3
  6
CONTINUOUS
 62
3
 10
0.816162923824326
 20
12.1398883423415
 30
0.0
 40
0.0398354310323619
 50
179.999999999999
 51
359.999999999999
  0
LINE
  8
3
  6
CONTINUOUS
 62
3
 10
0.855998354855828
 20
12.1398883423415
 30
0.0
 11
0.855998354855828
 21
12.2186284998218
 31
0.0
  0
ARC
  8
3
  6
CONTINUOUS
 62
3
 10
0.974108591076298
 20
12.2186284998219
 30
0.0
 40
0.11811023622047
 50
90.0000000000015
 51
180.000000000002
  0
LINE
  8
3
  6
CONTINUOUS
 62
3
 10
0.974108591076295
 20
12.3367387360423
 30
0.0
 11
1.10274400504873
 21
12.3367387360423
 31
0.0
  0
ARC
  8
3
  6
CONTINUOUS
 62
3
 10
1.10274400504874
 20
12.3647387360423
 30
0.0
 40
0.0279999999999987
 50
269.999999999985
 51
359.999999999985
  0
LINE
  8
3
  6
CONTINUOUS
 62
3
 10
1.13074400504874
 20
12.3647387360423
 30
0.0
 11
1.13074400504874
 21
12.8772324177313
 31
0.0
  0
ARC
  8
3
  6
CONTINUOUS
 62
3
 10
1.20948416252904
 20
12.8772324177313
 30
0.0
 40
0.0787401574803042
 50
89.9999999999946
 51
179.999999999995
  0
LINE
  8
3
  6
CONTINUOUS
 62
3
 10
1.20948416252905
 20
12.9559725752116
 30
0.0
 11
1.49491723339519
 21
12.9559725752116
 31
0.0
  0
ARC
  8
3
  6
CONTINUOUS
 62
3
 10
1.4949172333952
 20
12.8772324177313
 30
0.0
 40
0.0787401574803077
 50
7.53239832054287E-12
 51
90.0000000000075
  0
LINE
  8
3
  6
CONTINUOUS
 62
3
 10
1.57365739087551
 20
12.8772324177313
 30
0.0
 11
1.57365739087551
 21
12.1383425009439
 31
0.0
  0
ARC
  8
3
  6
CONTINUOUS
 62
3
 10
1.61483760480465
 20
12.1383425009439
 30
0.0
 40
0.0411802139288575
 50
179.999999999999
 51
359.999999999999
  0
LINE
  8
3
  6
CONTINUOUS
 62
3
 10
1.65601781873378
 20
12.1383425009439
 30
0.0
 11
1.65601781873378
 21
12.8756865763337
 31
0.0
  0
ARC
  8
3
  6
CONTINUOUS
 62
3
 10
1.7347579762141
 20
12.8756865763337
 30
0.0
 40
0.0787401574803184
 50
90.000000000005
 51
180.000000000005
  0
LINE
  8
3
  6
CONTINUOUS
 62
3
 10
1.73475797621409
 20
12.954426733814
 30
0.0
 11
2.02019104708023
 21
12.954426733814
 31
0.0
  0
ARC
  8
3
  6
CONTINUOUS
 62
3
 10
2.02019104708023
 20
12.8756865763337
 30
0.0
 40
0.0787401574803219
 50
359.999999999997
 51
89.9999999999972
  0
LINE
  8
3
  6
CONTINUOUS
 62
3
 10
2.09893120456055
 20
12.8756865763337
 30
0.0
 11
2.09893120456055
 21
12.3631928946447
 31
0.0
  0
ARC
  8
3
  6
CONTINUOUS
 62
3
 10
2.12693120456056
 20
12.3631928946447
 30
0.0
 40
0.0280000000000094
 50
179.999999999978
 51
269.999999999978
  0
LINE
  8
3
  6
CONTINUOUS
 62
3
 10
2.12693120456055
 20
12.3351928946447
 30
0.0
 11
2.25556661853299
 21
12.3351928946447
 31
0.0
  0
ARC
  8
3
  6
CONTINUOUS
 62
3
 10
2.25556661853299
 20
12.2170826584242
 30
0.0
 40
0.118110236220474
 50
359.999999999999
 51
89.9999999999998
  0
LINE
  8
3
  6
CONTINUOUS
 62
3
 10
2.37367685475346
 20
12.2170826584242
 30
0.0
 11
2.37367685475346
 21
12.1383425009439
 31
0.0
  0
ARC
  8
3
  6
CONTINUOUS
 62
3
 10
2.41244588810779
 20
12.1383425009439
 30
0.0
 40
0.0387690333529136
 50
179.999999999999
 51
359.999999999999
  0
LINE
  8
3
  6
CONTINUOUS
 62
3
 10
2.45121492145819
 20
12.1383425009439
 30
0.0
 11
2.45121492145819
 21
12.2170826584242
 31
0.0
  0
ARC
  8
3
  6
CONTINUOUS
 62
3
 10
2.56932515767866
 20
12.2170826584242
 30
0.0
 40
0.11811023622047
 50
90.0000000000015
 51
180.000000000002
  0
LINE
  8
3
  6
CONTINUOUS
 62
3
 10
2.56932515767866
 20
12.3351928946447
 30
0.0
 11
2.6979605716511
 21
12.3351928946447
 31
0.0
  0
ARC
  8
3
  6
CONTINUOUS
 62
3
 10
2.69796057165109
 20
12.3631928946447
 30
0.0
 40
0.0280000000000094
 50
270.000000000021
 51
2.16086885058631E-11
  0
LINE
  8
3
  6
CONTINUOUS
 62
3
 10
2.7259605716511
 20
12.3631928946447
 30
0.0
 11
2.7259605716511
 21
12.8756865763337
 31
0.0
  0
ARC
  8
3
  6
CONTINUOUS
 62
3
 10
2.80470072913142
 20
12.8756865763337
 30
0.0
 40
0.0787401574803219
 50
90.0000000000024
 51
180.000000000002
  0
LINE
  8
3
  6
CONTINUOUS
 62
3
 10
2.80470072913142
 20
12.954426733814
 30
0.0
 11
3.09013379999756
 21
12.954426733814
 31
0.0
  0
ARC
  8
3
  6
CONTINUOUS
 62
3
 10
3.09013379999755
 20
12.8756865763337
 30
0.0
 40
0.0787401574803184
 50
359.999999999994
 51
89.9999999999946
  0
LINE
  8
3
  6
CONTINUOUS
 62
3
 10
3.16887395747787
 20
12.8756865763337
 30
0.0
 11
3.16887395747787
 21
0.138667716892712
 31
0.0
  0
ARC
  8
3
  6
CONTINUOUS
 62
3
 10
3.09013379999757
 20
0.13866771689272
 30
0.0
 40
0.0787401574803042
 50
269.999999999995
 51
359.999999999995
  0
LINE
  8
3
  6
CONTINUOUS
 62
3
 10
3.09013379999756
 20
0.0599275594124151
 30
0.0
 11
2.80470072913142
 21
0.0599275594124151
 31
0.0
  0
ARC
  8
3
  6
CONTINUOUS
 62
3
 10
2.80470072913141
 20
0.138667716892723
 30
0.0
 40
0.0787401574803077
 50
180.000000000008
 51
270.000000000008
  0
LINE
  8
3
  6
CONTINUOUS
 62
3
 10
2.7259605716511
 20
0.138667716892712
 30
0.0
 11
2.7259605716511
 21
0.651161398581706
 31
0.0
  0
ARC
  8
3
  6
CONTINUOUS
 62
3
 10
2.69796057165111
 20
0.651161398581703
 30
0.0
 40
0.0279999999999951
 50
7.08627583030072E-12
 51
90.0000000000071
  0
LINE
  8
3
  6
CONTINUOUS
 62
3
 10
2.6979605716511
 20
0.679161398581698
 30
0.0
 11
2.56932515767866
 21
0.679161398581698
 31
0.0
  0
ARC
  8
3
  6
CONTINUOUS
 62
3
 10
2.56932515767866
 20
0.797271634802168
 30
0.0
 40
0.11811023622047
 50
179.999999999998
 51
269.999999999998
  0
LINE
  8
3
  6
CONTINUOUS
 62
3
 10
2.45121492145819
 20
0.797271634802172
 30
0.0
 11
2.45121492145819
 21
0.868818023514763
 31
0.0
  0
ARC
  8
3
  6
CONTINUOUS
 62
3
 10
2.41244588810781
 20
0.868818023514763
 30
0.0
 40
0.0387690333529349
 50
359.999999999999
 51
180
  0
LINE
  8
3
  6
CONTINUOUS
 62
3
 10
2.37367685475346
 20
0.868818023514763
 30
0.0
 11
2.37367685475346
 21
0.797271634802172
 31
0.0
  0
ARC
  8
3
  6
CONTINUOUS
 62
3
 10
2.25556661853299
 20
0.797271634802172
 30
0.0
 40
0.118110236220474
 50
270
 51
1.53511459547513E-13
  0
LINE
  8
3
  6
CONTINUOUS
 62
3
 10
2.25556661853299
 20
0.679161398581698
 30
0.0
 11
2.12693120456055
 21
0.679161398581698
 31
0.0
  0
ARC
  8
3
  6
CONTINUOUS
 62
3
 10
2.12693120456055
 20
0.651161398581703
 30
0.0
 40
0.0279999999999951
 50
89.9999999999925
 51
179.999999999993
  0
LINE
  8
3
  6
CONTINUOUS
 62
3
 10
2.09893120456055
 20
0.651161398581706
 30
0.0
 11
2.09893120456055
 21
0.138667716892712
 31
0.0
  0
ARC
  8
3
  6
CONTINUOUS
 62
3
 10
2.02019104708024
 20
0.138667716892723
 30
0.0
 40
0.0787401574803077
 50
269.999999999992
 51
359.999999999992
  0
LINE
  8
3
  6
CONTINUOUS
 62
3
 10
2.02019104708023
 20
0.0599275594124151
 30
0.0
 11
1.73475797621409
 21
0.0599275594124151
 31
0.0
  0
ARC
  8
3
  6
CONTINUOUS
 62
3
 10
1.73475797621408
 20
0.138667716892719
 30
0.0
 40
0.0787401574803042
 50
180.000000000005
 51
270.000000000005
  0
LINE
  8
3
  6
CONTINUOUS
 62
3
 10
1.65601781873378
 20
0.138667716892712
 30
0.0
 11
1.65601781873378
 21
0.903446618565937
 31
0.0
  0
ARC
  8
3
  6
CONTINUOUS
 62
3
 10
1.61483760480465
 20
0.903446618565937
 30
0.0
 40
0.0411802139288575
 50
359.999999999999
 51
180
  0
LINE
  8
3
  6
CONTINUOUS
 62
3
 10
1.57365739087551
 20
0.903446618565937
 30
0.0
 11
1.57365739087551
 21
0.140213558290355
 31
0.0
  0
ARC
  8
3
  6
CONTINUOUS
 62
3
 10
1.49491723339519
 20
0.140213558290352
 30
0.0
 40
0.0787401574803219
 50
270.000000000002
 51
2.74884407962174E-12
  0
LINE
  8
3
  6
CONTINUOUS
 62
3
 10
1.49491723339519
 20
0.0614734008100299
 30
0.0
 11
1.20948416252905
 21
0.0614734008100299
 31
0.0
  0
ARC
  8
3
  6
CONTINUOUS
 62
3
 10
1.20948416252906
 20
0.140213558290348
 30
0.0
 40
0.0787401574803184
 50
179.999999999995
 51
269.999999999995
  0
LINE
  8
3
  6
CONTINUOUS
 62
3
 10
1.13074400504874
 20
0.140213558290355
 30
0.0
 11
1.13074400504874
 21
0.652707239979321
 31
0.0
  0
ARC
  8
3
  6
CONTINUOUS
 62
3
 10
1.10274400504873
 20
0.652707239979329
 30
0.0
 40
0.0280000000000129
 50
359.999999999985
 51
89.9999999999853
  0
LINE
  8
3
  6
CONTINUOUS
 62
3
 10
1.10274400504873
 20
0.680707239979341
 30
0.0
 11
0.974108591076295
 21
0.680707239979341
 31
0.0
  0
ARC
  8
3
  6
CONTINUOUS
 62
3
 10
0.974108591076299
 20
0.798817476199812
 30
0.0
 40
0.11811023622047
 50
179.999999999998
 51
269.999999999998
  0
LINE
  8
3
  6
CONTINUOUS
 62
3
 10
0.855998354855828
 20
0.798817476199815
 30
0.0
 11
0.855998354855828
 21
0.928445067522631
 31
0.0
  0
ARC
  8
3
  6
CONTINUOUS
 62
3
 10
0.816162923824326
 20
0.928445067522631
 30
0.0
 40
0.0398354310323619
 50
359.999999999999
 51
180
  0
LINE
  8
3
  6
CONTINUOUS
 62
3
 10
0.776327492792831
 20
0.928445067522631
 30
0.0
 11
0.776327492792831
 21
0.798817476199815
 31
0.0
  0
ARC
  8
3
  6
CONTINUOUS
 62
3
 10
0.658217256572357
 20
0.798817476199816
 30
0.0
 40
0.118110236220474
 50
270
 51
1.53511459547513E-13
  0
LINE
  8
3
  6
CONTINUOUS
 62
3
 10
0.658217256572357
 20
0.680707239979341
 30
0.0
 11
0.529581842599917
 21
0.680707239979341
 31
0.0
  0
ARC
  8
3
  6
CONTINUOUS
 62
3
 10
0.529581842599928
 20
0.652707239979332
 30
0.0
 40
0.0280000000000094
 50
90.0000000000216
 51
180.000000000022
  0
LINE
  8
3
  6
CONTINUOUS
 62
3
 10
0.501581842599919
 20
0.652707239979321
 30
0.0
 11
0.501581842599919
 21
0.140213558290355
 31
0.0
  0
ARC
  8
3
  6
CONTINUOUS
 62
3
 10
0.422841685119597
 20
0.140213558290352
 30
0.0
 40
0.0787401574803219
 50
270.000000000002
 51
2.74884407962174E-12
  0
LINE
  8
3
  6
CONTINUOUS
 62
3
 10
0.4228416851196
 20
0.0614734008100299
 30
0.0
 11
0.137408614253459
 21
0.0614734008100299
 31
0.0
  0
ARC
  8
3
  6
CONTINUOUS
 62
3
 10
0.137408614253467
 20
0.140213558290348
 30
0.0
 40
0.0787401574803184
 50
179.999999999995
 51
269.999999999995
  0
LINE
  8
3
  6
CONTINUOUS
 62
3
 10
0.0586684567731481
 20
0.140213558290355
 30
0.0
 11
0.0586684567731481
 21
12.8772324177313
 31
0.0
  0
ARC
  8
3
  6
CONTINUOUS
 62
3
 10
0.137408614253452
 20
12.8772324177313
 30
0.0
 40
0.0787401574803042
 50
89.9999999999946
 51
179.999999999995
  0
LINE
  8
3
  6
CONTINUOUS
 62
3
 10
0.137408614253459
 20
12.9559725752116
 30
0.0
 11
0.4228416851196
 21
12.9559725752116
 31
0.0
  0
ARC
  8
3
  6
CONTINUOUS
 62
3
 10
0.42284168511961
 20
12.8772324177313
 30
0.0
 40
0.0787401574803077
 50
7.53239832054287E-12
 51
90.0000000000075
  0
LINE
  8
3
  6
CONTINUOUS
 62
3
 10
0.501581842599919
 20
12.8772324177313
 30
0.0
 11
0.501581842599919
 21
12.7491089973091
 31
0.0
  0
LINE
  8
9
  6
CONTINUOUS
 62
9
 10
0.278063793662822
 20
0.193746586068845
 30
0.0
 11
0.292862307417953
 21
0.14681169676037
 31
0.0
  0
LINE
  8
9
  6
CONTINUOUS
 62
9
 10
0.292862307417953
 20
0.14681169676037
 30
0.0
 11
0.282210751613913
 21
0.194857760102886
 31
0.0
  0
LINE
  8
9
  6
CONTINUOUS
 62
9
 10
2.94087435643277
 20
0.868388710557957
 30
0.0
 11
2.94741726456449
 21
0.718531477321854
 31
0.0
  0
LINE
  8
9
  6
CONTINUOUS
 62
9
 10
2.94741726456449
 20
0.718531477321854
 30
0.0
 11
2.94959823392378
 21
0.768483888401338
 31
0.0
  0
LINE
  8
9
  6
CONTINUOUS
 62
9
 10
2.94951350325952
 20
0.19326630009108
 30
0.0
 11
2.93781636289047
 21
0.241068567306627
 31
0.0
  0
LINE
  8
9
  6
CONTINUOUS
 62
9
 10
2.93781636289047
 20
0.241068567306627
 30
0.0
 11
2.94530275000476
 21
0.192428729192846
 31
0.0
  0
LINE
  8
9
  6
CONTINUOUS
 62
9
 10
1.87957075034219
 20
0.19326630009108
 30
0.0
 11
1.86787360997315
 21
0.241068567306627
 31
0.0
  0
LINE
  8
9
  6
CONTINUOUS
 62
9
 10
1.86787360997315
 20
0.241068567306627
 30
0.0
 11
1.87535999708743
 21
0.192428729192846
 31
0.0
  0
LINE
  8
9
  6
CONTINUOUS
 62
9
 10
1.3516903544173
 20
0.192261814630677
 30
0.0
 11
1.39973641775981
 21
0.181610258826637
 31
0.0
  0
LINE
  8
9
  6
CONTINUOUS
 62
9
 10
1.39973641775981
 20
0.181610258826637
 30
0.0
 11
1.35280152845134
 21
0.196408772581768
 31
0.0
  0
LINE
  8
9
  6
CONTINUOUS
 62
9
 10
1.60829469669984
 20
1.15353918384286
 30
0.0
 11
1.61483760480465
 21
1.00368195060558
 31
0.0
  0
LINE
  8
9
  6
CONTINUOUS
 62
9
 10
1.61483760480465
 20
1.00368195060558
 30
0.0
 11
1.61701857417291
 21
1.05363436168467
 31
0.0
  0
LINE
  8
9
  6
CONTINUOUS
 62
9
 10
1.39698754591779
 20
3.33175359234695
 30
0.0
 11
1.27411473927225
 21
3.41779005779648
 31
0.0
  0
LINE
  8
9
  6
CONTINUOUS
 62
9
 10
1.27411473927225
 20
3.41779005779648
 30
0.0
 11
1.31241696142902
 21
3.38565067731313
 31
0.0
  0
LINE
  8
9
  6
CONTINUOUS
 62
9
 10
0.238855153670138
 20
3.32649025146655
 30
0.0
 11
0.365363870531457
 21
3.40708519273523
 31
0.0
  0
LINE
  8
9
  6
CONTINUOUS
 62
9
 10
0.365363870531457
 20
3.40708519273523
 30
0.0
 11
0.321013328875587
 21
3.38399776206764
 31
0.0
  0
LINE
  8
9
  6
CONTINUOUS
 62
9
 10
1.87048288503658
 20
3.30495379143596
 30
0.0
 11
1.90294882711001
 21
3.45139819250778
 31
0.0
  0
LINE
  8
9
  6
CONTINUOUS
 62
9
 10
1.90294882711001
 20
3.45139819250778
 30
0.0
 11
1.88791353714042
 21
3.40371234496859
 31
0.0
  0
LINE
  8
9
  6
CONTINUOUS
 62
9
 10
2.95396017268274
 20
6.28481597636861
 30
0.0
 11
2.94741726456449
 21
6.4346732096053
 31
0.0
  0
LINE
  8
9
  6
CONTINUOUS
 62
9
 10
2.94741726456449
 20
6.4346732096053
 30
0.0
 11
2.9452362952007
 21
6.38472079852601
 31
0.0
  0
LINE
  8
9
  6
CONTINUOUS
 62
9
 10
2.988687260571
 20
6.80818153671628
 30
0.0
 11
2.86217854371956
 21
6.72758659543208
 31
0.0
  0
LINE
  8
9
  6
CONTINUOUS
 62
9
 10
2.86217854371956
 20
6.72758659543208
 30
0.0
 11
2.9065290853726
 21
6.75067402610511
 31
0.0
  0
LINE
  8
9
  6
CONTINUOUS
 62
9
 10
1.92387373198353
 20
6.31311413358214
 30
0.0
 11
1.79563695138136
 21
6.39093012230418
 31
0.0
  0
LINE
  8
9
  6
CONTINUOUS
 62
9
 10
1.79563695138136
 20
6.39093012230418
 30
0.0
 11
1.8359591815952
 21
6.36136463988664
 31
0.0
  0
LINE
  8
9
  6
CONTINUOUS
 62
9
 10
1.39859991829849
 20
6.31465997497978
 30
0.0
 11
1.27036313769632
 21
6.39247596370182
 31
0.0
  0
LINE
  8
9
  6
CONTINUOUS
 62
9
 10
1.27036313769632
 20
6.39247596370182
 30
0.0
 11
1.31068536791016
 21
6.36291048128428
 31
0.0
  0
LINE
  8
9
  6
CONTINUOUS
 62
9
 10
0.28666805780479
 20
6.28636181776625
 30
0.0
 11
0.280125149686533
 21
6.43621905100294
 31
0.0
  0
LINE
  8
9
  6
CONTINUOUS
 62
9
 10
0.280125149686533
 20
6.43621905100294
 30
0.0
 11
0.277944180322752
 21
6.38626663992366
 31
0.0
  0
LINE
  8
9
  6
CONTINUOUS
 62
9
 10
0.238855153670138
 20
9.2863327711516
 30
0.0
 11
0.365363870531457
 21
9.36692771242029
 31
0.0
  0
LINE
  8
9
  6
CONTINUOUS
 62
9
 10
0.365363870531457
 20
9.36692771242029
 30
0.0
 11
0.321013328875587
 21
9.3438402817527
 31
0.0
  0
LINE
  8
9
  6
CONTINUOUS
 62
9
 10
1.37183225242557
 20
9.26972901098081
 30
0.0
 11
1.3267263824995
 21
9.4127865535929
 31
0.0
  0
LINE
  8
9
  6
CONTINUOUS
 62
9
 10
1.3267263824995
 20
9.4127865535929
 30
0.0
 11
1.33754836319655
 21
9.36397175323694
 31
0.0
  0
LINE
  8
9
  6
CONTINUOUS
 62
9
 10
1.30580147762334
 20
9.78140017426661
 30
0.0
 11
1.43403825822734
 21
9.70358418554757
 31
0.0
  0
LINE
  8
9
  6
CONTINUOUS
 62
9
 10
1.43403825822734
 20
9.70358418554757
 30
0.0
 11
1.39371602801281
 21
9.73314966796416
 31
0.0
  0
LINE
  8
9
  6
CONTINUOUS
 62
9
 10
1.87093160354236
 20
9.8081524900867
 30
0.0
 11
1.87747451164716
 21
9.65829525684942
 31
0.0
  0
LINE
  8
9
  6
CONTINUOUS
 62
9
 10
1.87747451164716
 20
9.65829525684942
 30
0.0
 11
1.87965548101543
 21
9.70824766792851
 31
0.0
  0
LINE
  8
9
  6
CONTINUOUS
 62
9
 10
1.87048288503658
 20
9.26479631112101
 30
0.0
 11
1.90294882711001
 21
9.41124071219283
 31
0.0
  0
LINE
  8
9
  6
CONTINUOUS
 62
9
 10
1.90294882711001
 20
9.41124071219283
 30
0.0
 11
1.88791353714042
 21
9.36355486465365
 31
0.0
  0
LINE
  8
9
  6
CONTINUOUS
 62
9
 10
2.99381648490327
 20
12.2729566532708
 30
0.0
 11
2.86557970429927
 21
12.3507726419898
 31
0.0
  0
LINE
  8
9
  6
CONTINUOUS
 62
9
 10
2.86557970429927
 20
12.3507726419898
 30
0.0
 11
2.9059019345138
 21
12.3212071595733
 31
0.0
  0
LINE
  8
9
  6
CONTINUOUS
 62
9
 10
2.39719084339122
 20
11.8668850879418
 30
0.0
 11
2.42000935130889
 21
12.0151393145136
 31
0.0
  0
LINE
  8
9
  6
CONTINUOUS
 62
9
 10
2.42000935130889
 20
12.0151393145136
 30
0.0
 11
2.40812505669613
 21
11.9665722110221
 31
0.0
  0
LINE
  8
9
  6
CONTINUOUS
 62
9
 10
2.94955622842568
 20
12.8217398531579
 30
0.0
 11
2.94419860663053
 21
12.8706599485428
 31
0.0
  0
LINE
  8
9
  6
CONTINUOUS
 62
9
 10
2.94419860663053
 20
12.8706599485428
 30
0.0
 11
2.94527217380868
 21
12.8214590613833
 31
0.0
  0
LINE
  8
9
  6
CONTINUOUS
 62
9
 10
1.87962113504112
 20
12.821599557555
 30
0.0
 11
1.87747451164716
 21
12.8707653164912
 31
0.0
  0
LINE
  8
9
  6
CONTINUOUS
 62
9
 10
1.87747451164716
 20
12.8707653164912
 30
0.0
 11
1.8753278882532
 21
12.821599557555
 31
0.0
  0
LINE
  8
9
  6
CONTINUOUS
 62
9
 10
1.35323344547166
 20
12.8249810095996
 30
0.0
 11
1.30958133753966
 21
12.8477048586762
 31
0.0
  0
LINE
  8
9
  6
CONTINUOUS
 62
9
 10
1.30958133753966
 20
12.8477048586762
 30
0.0
 11
1.3510868220777
 21
12.8212629488166
 31
0.0
  0
LINE
  8
9
  6
CONTINUOUS
 62
9
 10
0.822705831942583
 20
11.8672863422908
 30
0.0
 11
0.816162923824326
 21
12.0171435755274
 31
0.0
  0
LINE
  8
9
  6
CONTINUOUS
 62
9
 10
0.816162923824326
 20
12.0171435755274
 30
0.0
 11
0.813981954460544
 21
11.9671911644482
 31
0.0
  0
LINE
  8
9
  6
CONTINUOUS
 62
9
 10
0.28666805780479
 20
12.2462043374513
 30
0.0
 11
0.280125149686533
 21
12.396061570688
 31
0.0
  0
LINE
  8
9
  6
CONTINUOUS
 62
9
 10
0.280125149686533
 20
12.396061570688
 30
0.0
 11
0.277944180322752
 21
12.3461091596087
 31
0.0
  0
LINE
  8
9
  6
CONTINUOUS
 62
9
 10
0.278039547761678
 20
12.8236089030069
 30
0.0
 11
0.267387991954941
 21
12.775562839665
 31
0.0
  0
LINE
  8
9
  6
CONTINUOUS
 62
9
 10
0.267387991954941
 20
12.775562839665
 30
0.0
 11
0.282186505712707
 21
12.8224977289727
 31
0.0
  0
LINE
  8
9
  6
CONTINUOUS
 62
9
 10
0.651439075837197
 20
12.7556519054139
 30
0.0
 11
0.501581842599919
 21
12.7491089973091
 31
0.0
  0
LINE
  8
9
  6
CONTINUOUS
 62
9
 10
0.501581842599919
 20
12.7491089973091
 30
0.0
 11
0.551534253679012
 21
12.7469280279408
 31
0.0
  0
LINE
  8
10
  6
CONTINUOUS
 62
10
 10
1.61701857417291
 20
1.05363436168467
 30
0.0
 11
1.39698754591779
 21
3.33175359234695
 31
0.0
  0
LINE
  8
10
  6
CONTINUOUS
 62
10
 10
0.321013328875587
 20
3.38399776206764
 30
0.0
 11
1.87048288503658
 21
3.30495379143596
 31
0.0
  0
LINE
  8
10
  6
CONTINUOUS
 62
10
 10
1.8359591815952
 20
6.36136463988664
 30
0.0
 11
1.39859991829849
 21
6.31465997497978
 31
0.0
  0
LINE
  8
10
  6
CONTINUOUS
 62
10
 10
1.39371602801281
 20
9.73314966796416
 30
0.0
 11
1.87093160354236
 21
9.8081524900867
 31
0.0
  0
LINE
  8
10
  6
CONTINUOUS
 62
10
 10
0.551534253679012
 20
12.7469280279408
 30
0.0
 11
0.0586684567625423
 21
13.0559725752116
 31
0.0
  0
ENDSEC
  0
EOF
