  0
SECTION
  2
HEADER
  9
$ACADVER
  1
AC1003
  9
$EXTMIN
 10
-0.00707165247079403
 20
13.104531111902
  9
$EXTMAX
 10
1.89732526521776
 20
0.0707140218537745
  9
$INSUNITS
 70
1
  9
$INSBASE
 10
0.945126806373481
 20
6.5876225668779
999
Created with OMAX LAYOUT for Windows. (www.omax.com) 2021-07-31
  0
ENDSEC
  0
SECTION
  2
TABLES
  0
TABLE
  2
LAYER
 70
    10
  0
LAYER
  2
0
 70
     0
 62
     7
  6
CONTINUOUS
  0
LAYER
  2
1
 70
     0
 62
     7
  6
CONTINUOUS
  0
LAYER
  2
2
 70
     0
 62
     7
  6
CONTINUOUS
  0
LAYER
  2
3
 70
     0
 62
     7
  6
CONTINUOUS
  0
LAYER
  2
4
 70
     0
 62
     7
  6
CONTINUOUS
  0
LAYER
  2
5
 70
     0
 62
     7
  6
CONTINUOUS
  0
LAYER
  2
6
 70
     0
 62
     7
  6
CONTINUOUS
  0
LAYER
  2
7
 70
     0
 62
     7
  6
CONTINUOUS
  0
LAYER
  2
8
 70
     0
 62
     7
  6
CONTINUOUS
  0
LAYER
  2
9
 70
     0
 62
     7
  6
CONTINUOUS
  0
LAYER
  2
10
 70
     0
 62
     7
  6
CONTINUOUS
  0
LAYER
  2
11
 70
     0
 62
     7
  6
CONTINUOUS
  0
LAYER
  2
12
 70
     0
 62
     7
  6
CONTINUOUS
  0
LAYER
  2
13
 70
     0
 62
     7
  6
CONTINUOUS
  0
LAYER
  2
14
 70
     0
 62
     7
  6
CONTINUOUS
  0
LAYER
  2
15
 70
     0
 62
     7
  6
CONTINUOUS
  0
LAYER
  2
16
 70
     0
 62
     7
  6
CONTINUOUS
  0
LAYER
  2
17
 70
     0
 62
     7
  6
CONTINUOUS
  0
LAYER
  2
18
 70
     0
 62
     7
  6
CONTINUOUS
  0
LAYER
  2
19
 70
     0
 62
     7
  6
CONTINUOUS
  0
LAYER
  2
20
 70
     0
 62
     7
  6
CONTINUOUS
  0
LAYER
  2
21
 70
     0
 62
     7
  6
CONTINUOUS
  0
LAYER
  2
22
 70
     0
 62
     7
  6
CONTINUOUS
  0
LAYER
  2
23
 70
     0
 62
     7
  6
CONTINUOUS
  0
LAYER
  2
24
 70
     0
 62
     7
  6
CONTINUOUS
  0
LAYER
  2
25
 70
     0
 62
     7
  6
CONTINUOUS
  0
LAYER
  2
26
 70
     0
 62
     7
  6
CONTINUOUS
  0
LAYER
  2
27
 70
     0
 62
     7
  6
CONTINUOUS
  0
LAYER
  2
28
 70
     0
 62
     7
  6
CONTINUOUS
  0
LAYER
  2
29
 70
     0
 62
     7
  6
CONTINUOUS
  0
LAYER
  2
30
 70
     0
 62
     7
  6
CONTINUOUS
  0
LAYER
  2
31
 70
     0
 62
     7
  6
CONTINUOUS
  0
ENDTAB
  0
ENDSEC
  0
SECTION
  2
ENTITIES
  0
ARC
  8
3
  6
CONTINUOUS
 62
3
 10
1.67586857081993
 20
0.203588038481789
 30
0.0
 40
0.0669291342771756
 50
164.999999997427
 51
180.000000002572
  0
ARC
  8
3
  6
CONTINUOUS
 62
3
 10
1.67586857084276
 20
0.203588038478784
 30
0.0
 40
0.0669291343000005
 50
179.999999999999
 51
359.999999999999
  0
ARC
  8
3
  6
CONTINUOUS
 62
3
 10
1.67586857084355
 20
0.203588038484795
 30
0.0
 40
0.0669291342992092
 50
359.999999994854
 51
165.000000005145
  0
ARC
  8
3
  6
CONTINUOUS
 62
3
 10
0.3143850418997
 20
0.203588038483292
 30
0.0
 40
0.0669291342954912
 50
89.9999999961411
 51
180.000000003859
  0
ARC
  8
3
  6
CONTINUOUS
 62
3
 10
0.314385041904208
 20
0.203588038478784
 30
0.0
 40
0.0669291342999987
 50
179.999999999999
 51
359.999999999999
  0
ARC
  8
3
  6
CONTINUOUS
 62
3
 10
0.314385041908715
 20
0.203588038483293
 30
0.0
 40
0.0669291342954912
 50
359.999999996141
 51
90.0000000038585
  0
ARC
  8
3
  6
CONTINUOUS
 62
3
 10
0.314385041903024
 20
3.32181152203593
 30
0.0
 40
0.0984251974988169
 50
29.9999999974273
 51
180.000000002572
  0
LINE
  8
3
  6
CONTINUOUS
 62
3
 10
0.215959844404207
 20
3.32181152203151
 30
0.0
 11
0.215959844404207
 21
0.762756387031487
 31
0.0
  0
ARC
  8
3
  6
CONTINUOUS
 62
3
 10
0.314385041904208
 20
0.762756387031486
 30
0.0
 40
0.098425197500001
 50
179.999999999999
 51
359.999999999999
  0
LINE
  8
3
  6
CONTINUOUS
 62
3
 10
0.412810239404209
 20
0.762756387031487
 30
0.0
 11
0.412810239404209
 21
3.32181152203151
 31
0.0
  0
ARC
  8
3
  6
CONTINUOUS
 62
3
 10
0.314385041937192
 20
3.32181152204035
 30
0.0
 40
0.0984251974670164
 50
359.999999994855
 51
30.0000000051447
  0
ARC
  8
3
  6
CONTINUOUS
 62
3
 10
1.67586857083612
 20
3.32181152203814
 30
0.0
 40
0.0984251974933723
 50
89.9999999961411
 51
180.000000003859
  0
LINE
  8
3
  6
CONTINUOUS
 62
3
 10
1.57744337334275
 20
3.32181152203151
 30
0.0
 11
1.57744337334275
 21
0.762756387031487
 31
0.0
  0
ARC
  8
3
  6
CONTINUOUS
 62
3
 10
1.67586857084275
 20
0.762756387031486
 30
0.0
 40
0.098425197500001
 50
179.999999999999
 51
359.999999999999
  0
LINE
  8
3
  6
CONTINUOUS
 62
3
 10
1.77429376834275
 20
0.762756387031487
 30
0.0
 11
1.77429376834275
 21
3.32181152203151
 31
0.0
  0
ARC
  8
3
  6
CONTINUOUS
 62
3
 10
1.67586857084938
 20
3.32181152203814
 30
0.0
 40
0.0984251974933723
 50
359.999999996141
 51
90.0000000038585
  0
ARC
  8
3
  6
CONTINUOUS
 62
3
 10
1.67586857083209
 20
6.31393752603593
 30
0.0
 40
0.0984251974893325
 50
134.999999997427
 51
180.000000002572
  0
LINE
  8
3
  6
CONTINUOUS
 62
3
 10
1.57744337334275
 20
6.31393752603151
 30
0.0
 11
1.57744337334275
 21
3.75488239103149
 31
0.0
  0
ARC
  8
3
  6
CONTINUOUS
 62
3
 10
1.67586857084275
 20
3.75488239103149
 30
0.0
 40
0.098425197500001
 50
179.999999999999
 51
359.999999999999
  0
LINE
  8
3
  6
CONTINUOUS
 62
3
 10
1.77429376834275
 20
3.75488239103149
 30
0.0
 11
1.77429376834275
 21
6.31393752603151
 31
0.0
  0
ARC
  8
3
  6
CONTINUOUS
 62
3
 10
1.67586857084641
 20
6.31393752604035
 30
0.0
 40
0.0984251974963402
 50
359.999999994854
 51
135.000000005145
  0
ARC
  8
3
  6
CONTINUOUS
 62
3
 10
0.314385041897579
 20
6.31393752603814
 30
0.0
 40
0.0984251974933723
 50
89.9999999961411
 51
180.000000003859
  0
LINE
  8
3
  6
CONTINUOUS
 62
3
 10
0.215959844404207
 20
6.31393752603151
 30
0.0
 11
0.215959844404207
 21
3.75488239103149
 31
0.0
  0
ARC
  8
3
  6
CONTINUOUS
 62
3
 10
0.314385041904208
 20
3.75488239103149
 30
0.0
 40
0.098425197500001
 50
179.999999999999
 51
359.999999999999
  0
LINE
  8
3
  6
CONTINUOUS
 62
3
 10
0.412810239404209
 20
3.75488239103149
 30
0.0
 11
0.412810239404209
 21
6.31393752603151
 31
0.0
  0
ARC
  8
3
  6
CONTINUOUS
 62
3
 10
0.314385041910836
 20
6.31393752603814
 30
0.0
 40
0.0984251974933723
 50
359.999999996141
 51
90.0000000038585
  0
ARC
  8
3
  6
CONTINUOUS
 62
3
 10
0.314385041903023
 20
9.30606353003593
 30
0.0
 40
0.0984251974988167
 50
29.9999999974268
 51
180.000000002572
  0
LINE
  8
3
  6
CONTINUOUS
 62
3
 10
0.215959844404207
 20
9.30606353003151
 30
0.0
 11
0.215959844404207
 21
6.74700839503151
 31
0.0
  0
ARC
  8
3
  6
CONTINUOUS
 62
3
 10
0.314385041904208
 20
6.74700839503151
 30
0.0
 40
0.098425197500001
 50
179.999999999999
 51
359.999999999999
  0
LINE
  8
3
  6
CONTINUOUS
 62
3
 10
0.412810239404209
 20
6.74700839503151
 30
0.0
 11
0.412810239404209
 21
9.30606353003151
 31
0.0
  0
ARC
  8
3
  6
CONTINUOUS
 62
3
 10
0.314385041937193
 20
9.30606353004035
 30
0.0
 40
0.0984251974670163
 50
359.999999994855
 51
30.0000000051448
  0
ARC
  8
3
  6
CONTINUOUS
 62
3
 10
1.67586857083612
 20
9.30606353003814
 30
0.0
 40
0.0984251974933723
 50
89.9999999961411
 51
180.000000003859
  0
LINE
  8
3
  6
CONTINUOUS
 62
3
 10
1.57744337334275
 20
9.30606353003151
 30
0.0
 11
1.57744337334275
 21
6.74700839503151
 31
0.0
  0
ARC
  8
3
  6
CONTINUOUS
 62
3
 10
1.67586857084275
 20
6.74700839503151
 30
0.0
 40
0.098425197500001
 50
179.999999999999
 51
359.999999999999
  0
LINE
  8
3
  6
CONTINUOUS
 62
3
 10
1.77429376834275
 20
6.74700839503151
 30
0.0
 11
1.77429376834275
 21
9.30606353003151
 31
0.0
  0
ARC
  8
3
  6
CONTINUOUS
 62
3
 10
1.67586857084938
 20
9.30606353003814
 30
0.0
 40
0.0984251974933723
 50
359.999999996141
 51
90.0000000038585
  0
ARC
  8
3
  6
CONTINUOUS
 62
3
 10
1.67586857083612
 20
12.2981895340381
 30
0.0
 40
0.0984251974933723
 50
89.9999999961411
 51
180.000000003859
  0
LINE
  8
3
  6
CONTINUOUS
 62
3
 10
1.57744337334275
 20
12.2981895340315
 30
0.0
 11
1.57744337334275
 21
9.73913439903151
 31
0.0
  0
ARC
  8
3
  6
CONTINUOUS
 62
3
 10
1.67586857084275
 20
9.73913439903151
 30
0.0
 40
0.098425197500001
 50
179.999999999999
 51
359.999999999999
  0
LINE
  8
3
  6
CONTINUOUS
 62
3
 10
1.77429376834275
 20
9.73913439903151
 30
0.0
 11
1.77429376834275
 21
12.2981895340315
 31
0.0
  0
ARC
  8
3
  6
CONTINUOUS
 62
3
 10
1.67586857084938
 20
12.2981895340381
 30
0.0
 40
0.0984251974933723
 50
359.999999996141
 51
90.0000000038585
  0
ARC
  8
3
  6
CONTINUOUS
 62
3
 10
1.67586857084623
 20
12.871657095271
 30
0.0
 40
0.0669291342965309
 50
239.999999994855
 51
5.14489069717284E-9
  0
ARC
  8
3
  6
CONTINUOUS
 62
3
 10
1.67586857084276
 20
12.871657095277
 30
0.0
 40
0.0669291343000005
 50
359.999999999999
 51
180
  0
ARC
  8
3
  6
CONTINUOUS
 62
3
 10
1.67586857083755
 20
12.871657095274
 30
0.0
 40
0.066929134294796
 50
179.999999997427
 51
240.000000002572
  0
ARC
  8
3
  6
CONTINUOUS
 62
3
 10
0.995126806363005
 20
11.7482514349874
 30
0.0
 40
0.0625182974064358
 50
149.999999997427
 51
180.000000002572
  0
LINE
  8
3
  6
CONTINUOUS
 62
3
 10
0.932608508956925
 20
11.7482514349846
 30
0.0
 11
0.932608508956925
 21
1.36037623940098
 31
0.0
  0
ARC
  8
3
  6
CONTINUOUS
 62
3
 10
0.995126806373481
 20
1.36037623940098
 30
0.0
 40
0.0625182974169114
 50
179.999999999999
 51
359.999999999999
  0
LINE
  8
3
  6
CONTINUOUS
 62
3
 10
1.05764510379004
 20
1.36037623940098
 30
0.0
 11
1.05764510379004
 21
11.7482514349846
 31
0.0
  0
ARC
  8
3
  6
CONTINUOUS
 62
3
 10
0.995126806374985
 20
11.7482514349902
 30
0.0
 40
0.0625182974154072
 50
359.999999994855
 51
150.000000005145
  0
ARC
  8
3
  6
CONTINUOUS
 62
3
 10
0.314385041897579
 20
12.2981895340381
 30
0.0
 40
0.0984251974933723
 50
89.9999999961411
 51
180.000000003859
  0
LINE
  8
3
  6
CONTINUOUS
 62
3
 10
0.215959844404207
 20
12.2981895340315
 30
0.0
 11
0.215959844404207
 21
9.73913439903151
 31
0.0
  0
ARC
  8
3
  6
CONTINUOUS
 62
3
 10
0.314385041904208
 20
9.73913439903151
 30
0.0
 40
0.098425197500001
 50
179.999999999999
 51
359.999999999999
  0
LINE
  8
3
  6
CONTINUOUS
 62
3
 10
0.412810239404209
 20
9.73913439903151
 30
0.0
 11
0.412810239404209
 21
12.2981895340315
 31
0.0
  0
ARC
  8
3
  6
CONTINUOUS
 62
3
 10
0.314385041910836
 20
12.2981895340381
 30
0.0
 40
0.0984251974933723
 50
359.999999996141
 51
90.0000000038585
  0
ARC
  8
3
  6
CONTINUOUS
 62
3
 10
0.314385041918717
 20
12.871657095271
 30
0.0
 40
0.0669291342854895
 50
314.999999994855
 51
5.1450179193601E-9
  0
ARC
  8
3
  6
CONTINUOUS
 62
3
 10
0.314385041904208
 20
12.871657095277
 30
0.0
 40
0.0669291342999987
 50
359.999999999999
 51
180
  0
ARC
  8
3
  6
CONTINUOUS
 62
3
 10
0.314385041902963
 20
12.871657095274
 30
0.0
 40
0.0669291342987541
 50
179.999999997427
 51
315.000000002572
  0
LINE
  8
3
  6
CONTINUOUS
 62
3
 10
0.535841736279206
 20
12.5699272515632
 30
0.0
 11
0.535841736279206
 21
12.2140635492243
 31
0.0
  0
LINE
  8
3
  6
CONTINUOUS
 62
3
 10
0.535841736279206
 20
12.2140635492243
 30
0.0
 11
0.814498271956925
 21
12.2140635492243
 31
0.0
  0
ARC
  8
3
  6
CONTINUOUS
 62
3
 10
0.814498271956925
 20
12.0959533122243
 30
0.0
 40
0.118110236999998
 50
6.62400208581675E-13
 51
90.0000000000007
  0
LINE
  8
3
  6
CONTINUOUS
 62
3
 10
0.932608508956925
 20
12.0959533122243
 30
0.0
 11
0.932608508956925
 21
11.9323431483177
 31
0.0
  0
ARC
  8
3
  6
CONTINUOUS
 62
3
 10
0.995126806373481
 20
11.9323431483177
 30
0.0
 40
0.0625182974169114
 50
179.999999999999
 51
359.999999999999
  0
LINE
  8
3
  6
CONTINUOUS
 62
3
 10
1.05764510379004
 20
11.9323431483177
 30
0.0
 11
1.05764510379004
 21
12.0959533122243
 31
0.0
  0
ARC
  8
3
  6
CONTINUOUS
 62
3
 10
1.17575534079004
 20
12.0959533122243
 30
0.0
 40
0.118110236999998
 50
89.9999999999989
 51
179.999999999999
  0
LINE
  8
3
  6
CONTINUOUS
 62
3
 10
1.17575534079004
 20
12.2140635492243
 30
0.0
 11
1.45441187646776
 21
12.2140635492243
 31
0.0
  0
LINE
  8
3
  6
CONTINUOUS
 62
3
 10
1.45441187646776
 20
12.2140635492243
 30
0.0
 11
1.45441187646776
 21
12.925790953902
 31
0.0
  0
ARC
  8
3
  6
CONTINUOUS
 62
3
 10
1.53315203446776
 20
12.925790953902
 30
0.0
 40
0.0787401580000076
 50
90.0000000000063
 51
180.000000000006
  0
LINE
  8
3
  6
CONTINUOUS
 62
3
 10
1.53315203446775
 20
13.004531111902
 30
0.0
 11
1.81858510721775
 21
13.004531111902
 31
0.0
  0
ARC
  8
3
  6
CONTINUOUS
 62
3
 10
1.81858510721775
 20
12.925790953902
 30
0.0
 40
0.0787401580000093
 50
359.999999999994
 51
89.9999999999946
  0
LINE
  8
3
  6
CONTINUOUS
 62
3
 10
1.89732526521776
 20
12.925790953902
 30
0.0
 11
1.89732526521776
 21
0.149454179853791
 31
0.0
  0
ARC
  8
3
  6
CONTINUOUS
 62
3
 10
1.81858510721775
 20
0.149454179853784
 30
0.0
 40
0.0787401580000093
 50
270.000000000005
 51
5.34417669969597E-12
  0
LINE
  8
3
  6
CONTINUOUS
 62
3
 10
1.81858510721775
 20
0.0707140218537745
 30
0.0
 11
1.53315203446775
 21
0.0707140218537745
 31
0.0
  0
ARC
  8
3
  6
CONTINUOUS
 62
3
 10
1.53315203446776
 20
0.149454179853782
 30
0.0
 40
0.0787401580000076
 50
179.999999999993
 51
269.999999999993
  0
LINE
  8
3
  6
CONTINUOUS
 62
3
 10
1.45441187646776
 20
0.149454179853791
 30
0.0
 11
1.45441187646776
 21
0.861181584531494
 31
0.0
  0
LINE
  8
3
  6
CONTINUOUS
 62
3
 10
1.45441187646776
 20
0.861181584531494
 30
0.0
 11
1.17575534079004
 21
0.861181584531494
 31
0.0
  0
ARC
  8
3
  6
CONTINUOUS
 62
3
 10
1.17575534079004
 20
0.979291821531492
 30
0.0
 40
0.118110236999998
 50
180.000000000001
 51
270.000000000001
  0
LINE
  8
3
  6
CONTINUOUS
 62
3
 10
1.05764510379004
 20
0.97929182153149
 30
0.0
 11
1.05764510379004
 21
1.18696545043363
 31
0.0
  0
ARC
  8
3
  6
CONTINUOUS
 62
3
 10
0.995126806373481
 20
1.18696545043363
 30
0.0
 40
0.0625182974169114
 50
359.999999999999
 51
180
  0
LINE
  8
3
  6
CONTINUOUS
 62
3
 10
0.932608508956925
 20
1.18696545043363
 30
0.0
 11
0.932608508956925
 21
0.97929182153149
 31
0.0
  0
ARC
  8
3
  6
CONTINUOUS
 62
3
 10
0.814498271956927
 20
0.979291821531492
 30
0.0
 40
0.118110236999998
 50
269.999999999999
 51
359.999999999999
  0
LINE
  8
3
  6
CONTINUOUS
 62
3
 10
0.814498271956925
 20
0.861181584531494
 30
0.0
 11
0.535841736279206
 21
0.861181584531494
 31
0.0
  0
LINE
  8
3
  6
CONTINUOUS
 62
3
 10
0.535841736279206
 20
0.861181584531494
 30
0.0
 11
0.535841736279206
 21
0.149454179853791
 31
0.0
  0
ARC
  8
3
  6
CONTINUOUS
 62
3
 10
0.457101578279199
 20
0.149454179853782
 30
0.0
 40
0.0787401580000076
 50
270.000000000006
 51
6.61639857228138E-12
  0
LINE
  8
3
  6
CONTINUOUS
 62
3
 10
0.457101578279207
 20
0.0707140218537745
 30
0.0
 11
0.171668505529208
 21
0.0707140218537745
 31
0.0
  0
ARC
  8
3
  6
CONTINUOUS
 62
3
 10
0.171668505529216
 20
0.149454179853784
 30
0.0
 40
0.0787401580000093
 50
179.999999999995
 51
269.999999999995
  0
LINE
  8
3
  6
CONTINUOUS
 62
3
 10
0.092928347529206
 20
0.149454179853791
 30
0.0
 11
0.092928347529206
 21
12.925790953902
 31
0.0
  0
ARC
  8
3
  6
CONTINUOUS
 62
3
 10
0.171668505529215
 20
12.925790953902
 30
0.0
 40
0.0787401580000093
 50
90.000000000005
 51
180.000000000005
  0
LINE
  8
3
  6
CONTINUOUS
 62
3
 10
0.171668505529208
 20
13.004531111902
 30
0.0
 11
0.457101578279207
 21
13.004531111902
 31
0.0
  0
ARC
  8
3
  6
CONTINUOUS
 62
3
 10
0.457101578279198
 20
12.925790953902
 30
0.0
 40
0.0787401580000076
 50
359.999999999993
 51
89.9999999999933
  0
LINE
  8
3
  6
CONTINUOUS
 62
3
 10
0.535841736279206
 20
12.925790953902
 30
0.0
 11
0.535841736279206
 21
12.5699272515632
 31
0.0
  0
LINE
  8
9
  6
CONTINUOUS
 62
9
 10
1.6765626380683
 20
0.206424457118745
 30
0.0
 11
1.61121999149122
 21
0.220910573107849
 31
0.0
  0
LINE
  8
9
  6
CONTINUOUS
 62
9
 10
1.61121999149122
 20
0.220910573107849
 30
0.0
 11
1.65890583902863
 21
0.205875283132635
 31
0.0
  0
LINE
  8
9
  6
CONTINUOUS
 62
9
 10
0.317304449739266
 20
0.203651740184356
 30
0.0
 11
0.314385041904208
 21
0.270517172778783
 31
0.0
  0
LINE
  8
9
  6
CONTINUOUS
 62
9
 10
0.314385041904208
 20
0.270517172778783
 30
0.0
 11
0.312204072535941
 21
0.22056476169969
 31
0.0
  0
LINE
  8
9
  6
CONTINUOUS
 62
9
 10
0.273115046439776
 20
3.29042917952949
 30
0.0
 11
0.399623763311709
 21
3.37102412078151
 31
0.0
  0
LINE
  8
9
  6
CONTINUOUS
 62
9
 10
0.399623763311709
 20
3.37102412078151
 30
0.0
 11
0.355273221652798
 21
3.34793669011976
 31
0.0
  0
LINE
  8
9
  6
CONTINUOUS
 62
9
 10
1.68241147894755
 20
3.27037948629423
 30
0.0
 11
1.67586857084275
 21
3.42023671953151
 31
0.0
  0
LINE
  8
9
  6
CONTINUOUS
 62
9
 10
1.67586857084275
 20
3.42023671953151
 30
0.0
 11
1.67368760147449
 21
3.37028430845242
 31
0.0
  0
LINE
  8
9
  6
CONTINUOUS
 62
9
 10
1.7168630467724
 20
6.28219611948104
 30
0.0
 11
1.60627144625088
 21
6.38353465062339
 31
0.0
  0
LINE
  8
9
  6
CONTINUOUS
 62
9
 10
1.60627144625088
 20
6.38353465062339
 30
0.0
 11
1.64005095663166
 21
6.34667078378288
 31
0.0
  0
LINE
  8
9
  6
CONTINUOUS
 62
9
 10
0.320927950009008
 20
6.26250549029423
 30
0.0
 11
0.314385041904208
 21
6.41236272353151
 31
0.0
  0
LINE
  8
9
  6
CONTINUOUS
 62
9
 10
0.314385041904208
 20
6.41236272353151
 30
0.0
 11
0.312204072535941
 21
6.36241031245242
 31
0.0
  0
LINE
  8
9
  6
CONTINUOUS
 62
9
 10
0.273115046439776
 20
9.27468118752948
 30
0.0
 11
0.399623763311709
 21
9.35527612878151
 31
0.0
  0
LINE
  8
9
  6
CONTINUOUS
 62
9
 10
0.399623763311709
 20
9.35527612878151
 30
0.0
 11
0.355273221652798
 21
9.33218869811976
 31
0.0
  0
LINE
  8
9
  6
CONTINUOUS
 62
9
 10
1.68241147894755
 20
9.25463149429423
 30
0.0
 11
1.67586857084275
 21
9.40448872753151
 31
0.0
  0
LINE
  8
9
  6
CONTINUOUS
 62
9
 10
1.67586857084275
 20
9.40448872753151
 30
0.0
 11
1.67368760147449
 21
9.35453631645242
 31
0.0
  0
LINE
  8
9
  6
CONTINUOUS
 62
9
 10
1.68241147894755
 20
12.2467574982942
 30
0.0
 11
1.67586857084275
 21
12.3966147315315
 31
0.0
  0
LINE
  8
9
  6
CONTINUOUS
 62
9
 10
1.67586857084275
 20
12.3966147315315
 30
0.0
 11
1.67368760147449
 21
12.3466623204524
 31
0.0
  0
LINE
  8
9
  6
CONTINUOUS
 62
9
 10
1.6733084386408
 20
12.8730616318993
 30
0.0
 11
1.64240400369276
 21
12.8136947647199
 31
0.0
  0
LINE
  8
9
  6
CONTINUOUS
 62
9
 10
1.64240400369276
 20
12.8136947647199
 30
0.0
 11
1.6692689841101
 21
12.8558643370106
 31
0.0
  0
LINE
  8
9
  6
CONTINUOUS
 62
9
 10
1.02081534759512
 20
11.7379532085019
 30
0.0
 11
0.940984372609085
 21
11.779510583693
 31
0.0
  0
LINE
  8
9
  6
CONTINUOUS
 62
9
 10
0.940984372609085
 20
11.779510583693
 30
0.0
 11
0.966286115983471
 21
11.7633915954426
 31
0.0
  0
LINE
  8
9
  6
CONTINUOUS
 62
9
 10
0.320927950009008
 20
12.2467574982942
 30
0.0
 11
0.314385041904208
 21
12.3966147315315
 31
0.0
  0
LINE
  8
9
  6
CONTINUOUS
 62
9
 10
0.314385041904208
 20
12.3966147315315
 30
0.0
 11
0.312204072535941
 21
12.3466623204524
 31
0.0
  0
LINE
  8
9
  6
CONTINUOUS
 62
9
 10
0.312365752734972
 20
12.8695477182918
 30
0.0
 11
0.361711086626682
 21
12.8243310505545
 31
0.0
  0
LINE
  8
9
  6
CONTINUOUS
 62
9
 10
0.361711086626682
 20
12.8243310505545
 30
0.0
 11
0.327931576245899
 21
12.861194917395
 31
0.0
  0
LINE
  8
9
  6
CONTINUOUS
 62
9
 10
0.685698969516485
 20
12.576470159668
 30
0.0
 11
0.535841736279206
 21
12.5699272515632
 31
0.0
  0
LINE
  8
9
  6
CONTINUOUS
 62
9
 10
0.535841736279206
 20
12.5699272515632
 30
0.0
 11
0.585794147358299
 21
12.5677462821949
 31
0.0
  0
LINE
  8
10
  6
CONTINUOUS
 62
10
 10
-0.00707165247079403
 20
0.0707140218537745
 30
0.0
 11
1.6765626380683
 21
0.206424457118745
 31
0.0
  0
LINE
  8
10
  6
CONTINUOUS
 62
10
 10
1.65890583902863
 20
0.205875283132635
 30
0.0
 11
0.317304449739266
 21
0.203651740184356
 31
0.0
  0
LINE
  8
10
  6
CONTINUOUS
 62
10
 10
0.312204072535941
 20
0.22056476169969
 30
0.0
 11
0.273115046439776
 21
3.29042917952949
 31
0.0
  0
LINE
  8
10
  6
CONTINUOUS
 62
10
 10
0.355273221652798
 20
3.34793669011976
 30
0.0
 11
1.68241147894755
 21
3.27037948629423
 31
0.0
  0
LINE
  8
10
  6
CONTINUOUS
 62
10
 10
1.67368760147449
 20
3.37028430845242
 30
0.0
 11
1.7168630467724
 21
6.28219611948104
 31
0.0
  0
LINE
  8
10
  6
CONTINUOUS
 62
10
 10
1.64005095663166
 20
6.34667078378288
 30
0.0
 11
0.320927950009008
 21
6.26250549029423
 31
0.0
  0
LINE
  8
10
  6
CONTINUOUS
 62
10
 10
0.312204072535941
 20
6.36241031245242
 30
0.0
 11
0.273115046439776
 21
9.27468118752948
 31
0.0
  0
LINE
  8
10
  6
CONTINUOUS
 62
10
 10
0.355273221652798
 20
9.33218869811976
 30
0.0
 11
1.68241147894755
 21
9.25463149429423
 31
0.0
  0
LINE
  8
10
  6
CONTINUOUS
 62
10
 10
1.67368760147449
 20
9.35453631645242
 30
0.0
 11
1.68241147894755
 21
12.2467574982942
 31
0.0
  0
LINE
  8
10
  6
CONTINUOUS
 62
10
 10
1.67368760147449
 20
12.3466623204524
 30
0.0
 11
1.6733084386408
 21
12.8730616318993
 31
0.0
  0
LINE
  8
10
  6
CONTINUOUS
 62
10
 10
1.6692689841101
 20
12.8558643370106
 30
0.0
 11
1.02081534759512
 21
11.7379532085019
 31
0.0
  0
LINE
  8
10
  6
CONTINUOUS
 62
10
 10
0.966286115983471
 20
11.7633915954426
 30
0.0
 11
0.320927950009008
 21
12.2467574982942
 31
0.0
  0
LINE
  8
10
  6
CONTINUOUS
 62
10
 10
0.312204072535941
 20
12.3466623204524
 30
0.0
 11
0.312365752734972
 21
12.8695477182918
 31
0.0
  0
LINE
  8
10
  6
CONTINUOUS
 62
10
 10
0.327931576245899
 20
12.861194917395
 30
0.0
 11
0.685698969516485
 21
12.576470159668
 31
0.0
  0
LINE
  8
10
  6
CONTINUOUS
 62
10
 10
0.585794147358299
 20
12.5677462821949
 30
0.0
 11
0.092928347529206
 21
13.104531111902
 31
0.0
  0
ENDSEC
  0
EOF
