  0
SECTION
  2
HEADER
  9
$ACADVER
  1
AC1003
  9
$EXTMIN
 10
-0.0434322041649846
 20
11.7373207211359
  9
$EXTMAX
 10
6.34146080381444
 20
0.0541488784516861
  9
$INSUNITS
 70
1
  9
$INSBASE
 10
3.14901429982473
 20
5.89573479979377
999
Created with OMAX LAYOUT for Windows. (www.omax.com) 2021-08-06
  0
ENDSEC
  0
SECTION
  2
TABLES
  0
TABLE
  2
LAYER
 70
    10
  0
LAYER
  2
0
 70
     0
 62
     7
  6
CONTINUOUS
  0
LAYER
  2
1
 70
     0
 62
     7
  6
CONTINUOUS
  0
LAYER
  2
2
 70
     0
 62
     7
  6
CONTINUOUS
  0
LAYER
  2
3
 70
     0
 62
     7
  6
CONTINUOUS
  0
LAYER
  2
4
 70
     0
 62
     7
  6
CONTINUOUS
  0
LAYER
  2
5
 70
     0
 62
     7
  6
CONTINUOUS
  0
LAYER
  2
6
 70
     0
 62
     7
  6
CONTINUOUS
  0
LAYER
  2
7
 70
     0
 62
     7
  6
CONTINUOUS
  0
LAYER
  2
8
 70
     0
 62
     7
  6
CONTINUOUS
  0
LAYER
  2
9
 70
     0
 62
     7
  6
CONTINUOUS
  0
LAYER
  2
10
 70
     0
 62
     7
  6
CONTINUOUS
  0
LAYER
  2
11
 70
     0
 62
     7
  6
CONTINUOUS
  0
LAYER
  2
12
 70
     0
 62
     7
  6
CONTINUOUS
  0
LAYER
  2
13
 70
     0
 62
     7
  6
CONTINUOUS
  0
LAYER
  2
14
 70
     0
 62
     7
  6
CONTINUOUS
  0
LAYER
  2
15
 70
     0
 62
     7
  6
CONTINUOUS
  0
LAYER
  2
16
 70
     0
 62
     7
  6
CONTINUOUS
  0
LAYER
  2
17
 70
     0
 62
     7
  6
CONTINUOUS
  0
LAYER
  2
18
 70
     0
 62
     7
  6
CONTINUOUS
  0
LAYER
  2
19
 70
     0
 62
     7
  6
CONTINUOUS
  0
LAYER
  2
20
 70
     0
 62
     7
  6
CONTINUOUS
  0
LAYER
  2
21
 70
     0
 62
     7
  6
CONTINUOUS
  0
LAYER
  2
22
 70
     0
 62
     7
  6
CONTINUOUS
  0
LAYER
  2
23
 70
     0
 62
     7
  6
CONTINUOUS
  0
LAYER
  2
24
 70
     0
 62
     7
  6
CONTINUOUS
  0
LAYER
  2
25
 70
     0
 62
     7
  6
CONTINUOUS
  0
LAYER
  2
26
 70
     0
 62
     7
  6
CONTINUOUS
  0
LAYER
  2
27
 70
     0
 62
     7
  6
CONTINUOUS
  0
LAYER
  2
28
 70
     0
 62
     7
  6
CONTINUOUS
  0
LAYER
  2
29
 70
     0
 62
     7
  6
CONTINUOUS
  0
LAYER
  2
30
 70
     0
 62
     7
  6
CONTINUOUS
  0
LAYER
  2
31
 70
     0
 62
     7
  6
CONTINUOUS
  0
ENDTAB
  0
ENDSEC
  0
SECTION
  2
ENTITIES
  0
LINE
  8
0
  6
CONTINUOUS
 62
0
 10
-0.0434322041649846
 20
0.0541488784516861
 30
0.0
 11
0.0565677958774389
 21
0.0541488784941091
 31
0.0
  0
LINE
  8
0
  6
CONTINUOUS
 62
0
 10
0.0565677958774389
 20
11.6373207211359
 30
0.0
 11
0.0565677958350154
 21
11.7373207211359
 31
0.0
  0
LINE
  8
3
  6
CONTINUOUS
 62
3
 10
0.0565677958774389
 20
0.0541488784941091
 30
0.0
 11
5.87051316497219
 21
1.35301854026289
 31
0.0
  0
LINE
  8
3
  6
CONTINUOUS
 62
3
 10
5.87051316497219
 20
1.35301854026289
 30
0.0
 11
5.72992653994693
 21
1.38418584466998
 31
0.0
  0
ARC
  8
3
  6
CONTINUOUS
 62
3
 10
5.86901985888344
 20
1.34691590218168
 30
0.0
 40
0.14399999995089
 50
164.999999997428
 51
180.000000002573
  0
ARC
  8
3
  6
CONTINUOUS
 62
3
 10
5.86901985893255
 20
1.34691590217522
 30
0.0
 40
0.143999999999998
 50
179.999999999999
 51
359.999999999999
  0
ARC
  8
3
  6
CONTINUOUS
 62
3
 10
5.86901985893425
 20
1.34691590218815
 30
0.0
 40
0.143999999998296
 50
359.999999994854
 51
165.000000005145
  0
LINE
  8
3
  6
CONTINUOUS
 62
3
 10
5.72992653994693
 20
1.38418584466998
 30
0.0
 11
5.77761238748434
 21
1.36915055469477
 31
0.0
  0
LINE
  8
3
  6
CONTINUOUS
 62
3
 10
5.77761238748434
 20
1.36915055469477
 30
0.0
 11
3.83970272573657
 21
1.35294759480907
 31
0.0
  0
LINE
  8
3
  6
CONTINUOUS
 62
3
 10
3.83970272573657
 20
1.35294759480907
 30
0.0
 11
3.70236748482882
 21
1.30964595968045
 31
0.0
  0
ARC
  8
3
  6
CONTINUOUS
 62
3
 10
3.84146080381615
 20
1.34691590216229
 30
0.0
 40
0.143999999998296
 50
194.999999994855
 51
5.14473803054813E-9
  0
ARC
  8
3
  6
CONTINUOUS
 62
3
 10
3.84146080381445
 20
1.34691590217522
 30
0.0
 40
0.143999999999998
 50
359.999999999999
 51
180
  0
ARC
  8
3
  6
CONTINUOUS
 62
3
 10
3.84146080376534
 20
1.34691590216875
 30
0.0
 40
0.14399999995089
 50
179.999999997427
 51
195.000000002572
  0
LINE
  8
3
  6
CONTINUOUS
 62
3
 10
3.70236748482882
 20
1.30964595968045
 30
0.0
 11
3.75118228518482
 21
1.32046794037736
 31
0.0
  0
LINE
  8
3
  6
CONTINUOUS
 62
3
 10
3.75118228518482
 20
1.32046794037736
 30
0.0
 11
0.290485519375029
 21
1.26256885631043
 31
0.0
  0
LINE
  8
3
  6
CONTINUOUS
 62
3
 10
0.290485519375029
 20
1.26256885631043
 30
0.0
 11
0.418148418294088
 21
1.30282081372439
 31
0.0
  0
ARC
  8
3
  6
CONTINUOUS
 62
3
 10
0.288851260443574
 20
1.26817574470093
 30
0.0
 40
0.133858267715749
 50
14.9999999974273
 51
180.000000002572
  0
ARC
  8
3
  6
CONTINUOUS
 62
3
 10
0.288851260444365
 20
1.26817574469492
 30
0.0
 40
0.133858267716541
 50
179.999999999999
 51
359.999999999999
  0
ARC
  8
3
  6
CONTINUOUS
 62
3
 10
0.288851260535666
 20
1.26817574470694
 30
0.0
 40
0.13385826762524
 50
359.999999994854
 51
15.0000000051447
  0
LINE
  8
3
  6
CONTINUOUS
 62
3
 10
0.418148418294088
 20
1.30282081372439
 30
0.0
 11
0.369333617938091
 21
1.29199883302749
 31
0.0
  0
LINE
  8
3
  6
CONTINUOUS
 62
3
 10
0.369333617938091
 20
1.29199883302749
 30
0.0
 11
1.81993344133018
 21
1.3486739802531
 31
0.0
  0
LINE
  8
3
  6
CONTINUOUS
 62
3
 10
1.81993344133018
 20
1.3486739802531
 30
0.0
 11
1.77663180620157
 21
1.48600922116084
 31
0.0
  0
ARC
  8
3
  6
CONTINUOUS
 62
3
 10
1.8139017486879
 20
1.34691590218168
 30
0.0
 40
0.143999999991573
 50
104.999999997427
 51
180.000000002572
  0
ARC
  8
3
  6
CONTINUOUS
 62
3
 10
1.81390174869633
 20
1.34691590217522
 30
0.0
 40
0.143999999999998
 50
179.999999999999
 51
359.999999999999
  0
ARC
  8
3
  6
CONTINUOUS
 62
3
 10
1.81390174870625
 20
1.34691590218815
 30
0.0
 40
0.143999999990076
 50
359.999999994855
 51
105.000000005145
  0
LINE
  8
3
  6
CONTINUOUS
 62
3
 10
1.77663180620157
 20
1.48600922116084
 30
0.0
 11
1.78745378689847
 21
1.43719442080485
 31
0.0
  0
LINE
  8
3
  6
CONTINUOUS
 62
3
 10
1.78745378689847
 20
1.43719442080485
 30
0.0
 11
1.02947811785264
 21
3.50888038712025
 31
0.0
  0
LINE
  8
3
  6
CONTINUOUS
 62
3
 10
1.02947811785264
 20
3.50888038712025
 30
0.0
 11
1.09331341306042
 21
3.57854438744877
 31
0.0
  0
ARC
  8
3
  6
CONTINUOUS
 62
3
 10
1.02650017389143
 20
3.51173114828577
 30
0.0
 40
0.0944881889746206
 50
44.9999999974275
 51
180.000000002572
  0
ARC
  8
3
  6
CONTINUOUS
 62
3
 10
1.02650017389319
 20
3.51173114828153
 30
0.0
 40
0.0944881889763778
 50
179.999999999999
 51
359.999999999999
  0
ARC
  8
3
  6
CONTINUOUS
 62
3
 10
1.02650017391367
 20
3.51173114829002
 30
0.0
 40
0.0944881889558941
 50
359.999999994854
 51
45.0000000051447
  0
LINE
  8
3
  6
CONTINUOUS
 62
3
 10
1.09331341306042
 20
3.57854438744877
 30
0.0
 11
1.05644954621991
 21
3.54476487706798
 31
0.0
  0
LINE
  8
3
  6
CONTINUOUS
 62
3
 10
1.05644954621991
 20
3.54476487706798
 30
0.0
 11
5.87051316497219
 21
10.2506563355385
 31
0.0
  0
LINE
  8
3
  6
CONTINUOUS
 62
3
 10
5.87051316497219
 20
10.2506563355385
 30
0.0
 11
5.72992653994693
 21
10.2818236399456
 31
0.0
  0
ARC
  8
3
  6
CONTINUOUS
 62
3
 10
5.86901985888344
 20
10.2445536974573
 30
0.0
 40
0.14399999995089
 50
164.999999997428
 51
180.000000002573
  0
ARC
  8
3
  6
CONTINUOUS
 62
3
 10
5.86901985893255
 20
10.2445536974508
 30
0.0
 40
0.143999999999998
 50
179.999999999999
 51
359.999999999999
  0
ARC
  8
3
  6
CONTINUOUS
 62
3
 10
5.86901985893425
 20
10.2445536974637
 30
0.0
 40
0.143999999998296
 50
359.999999994854
 51
165.000000005144
  0
LINE
  8
3
  6
CONTINUOUS
 62
3
 10
5.72992653994693
 20
10.2818236399456
 30
0.0
 11
5.77761238748434
 21
10.2667883499704
 31
0.0
  0
LINE
  8
3
  6
CONTINUOUS
 62
3
 10
5.77761238748434
 20
10.2667883499704
 30
0.0
 11
3.84295410985409
 21
10.2506563355385
 31
0.0
  0
LINE
  8
3
  6
CONTINUOUS
 62
3
 10
3.84295410985409
 20
10.2506563355385
 30
0.0
 11
3.70236748482882
 21
10.2818236399456
 31
0.0
  0
ARC
  8
3
  6
CONTINUOUS
 62
3
 10
3.84146080376534
 20
10.2445536974573
 30
0.0
 40
0.143999999950889
 50
164.999999997427
 51
180.000000002572
  0
ARC
  8
3
  6
CONTINUOUS
 62
3
 10
3.84146080381445
 20
10.2445536974508
 30
0.0
 40
0.143999999999998
 50
179.999999999999
 51
359.999999999999
  0
ARC
  8
3
  6
CONTINUOUS
 62
3
 10
3.84146080381615
 20
10.2445536974637
 30
0.0
 40
0.143999999998296
 50
359.999999994855
 51
165.000000005144
  0
LINE
  8
3
  6
CONTINUOUS
 62
3
 10
3.70236748482882
 20
10.2818236399456
 30
0.0
 11
3.75005333236623
 21
10.2667883499704
 31
0.0
  0
LINE
  8
3
  6
CONTINUOUS
 62
3
 10
3.75005333236623
 20
10.2667883499704
 30
0.0
 11
1.80779911060865
 21
10.2460470034904
 31
0.0
  0
LINE
  8
3
  6
CONTINUOUS
 62
3
 10
1.80779911060865
 20
10.2460470034904
 30
0.0
 11
1.77663180620157
 21
10.1054603784652
 31
0.0
  0
ARC
  8
3
  6
CONTINUOUS
 62
3
 10
1.81390174870625
 20
10.2445536974379
 30
0.0
 40
0.143999999990076
 50
254.999999994855
 51
5.14476347498558E-9
  0
ARC
  8
3
  6
CONTINUOUS
 62
3
 10
1.81390174869633
 20
10.2445536974508
 30
0.0
 40
0.143999999999998
 50
359.999999999999
 51
180
  0
ARC
  8
3
  6
CONTINUOUS
 62
3
 10
1.8139017486879
 20
10.2445536974443
 30
0.0
 40
0.143999999991573
 50
179.999999997427
 51
255.000000002572
  0
LINE
  8
3
  6
CONTINUOUS
 62
3
 10
1.77663180620157
 20
10.1054603784652
 30
0.0
 11
1.79166709617678
 21
10.1531462260026
 31
0.0
  0
LINE
  8
3
  6
CONTINUOUS
 62
3
 10
1.79166709617678
 20
10.1531462260026
 30
0.0
 11
1.49131803705172
 21
9.22255329846901
 31
0.0
  0
LINE
  8
3
  6
CONTINUOUS
 62
3
 10
1.49131803705172
 20
9.22255329846901
 30
0.0
 11
1.34146080381444
 21
9.21601039036421
 31
0.0
  0
LINE
  8
3
  6
CONTINUOUS
 62
3
 10
1.34146080381444
 20
9.21601039036421
 30
0.0
 11
1.34146080381444
 21
1.6914040911516
 31
0.0
  0
ARC
  8
3
  6
CONTINUOUS
 62
3
 10
1.42020096129477
 20
1.6914040911516
 30
0.0
 40
0.0787401574803255
 50
179.999999999999
 51
269.999999999999
  0
LINE
  8
3
  6
CONTINUOUS
 62
3
 10
1.42020096129477
 20
1.61266393367128
 30
0.0
 11
2.00090962271208
 21
1.61266393367128
 31
0.0
  0
ARC
  8
3
  6
CONTINUOUS
 62
3
 10
2.00090962271209
 20
1.53392377619097
 30
0.0
 40
0.0787401574803042
 50
4.98795457537206E-12
 51
90.000000000005
  0
LINE
  8
3
  6
CONTINUOUS
 62
3
 10
2.07964978019239
 20
1.53392377619098
 30
0.0
 11
2.07964978019239
 21
1.42565605965554
 31
0.0
  0
ARC
  8
3
  6
CONTINUOUS
 62
3
 10
2.15838993767271
 20
1.42565605965553
 30
0.0
 40
0.0787401574803184
 50
179.999999999994
 51
269.999999999994
  0
LINE
  8
3
  6
CONTINUOUS
 62
3
 10
2.15838993767271
 20
1.34691590217522
 30
0.0
 11
3.49697261483807
 21
1.34691590217522
 31
0.0
  0
ARC
  8
3
  6
CONTINUOUS
 62
3
 10
3.49697261483806
 20
1.42565605965554
 30
0.0
 40
0.0787401574803184
 50
270.000000000005
 51
4.96802641244601E-12
  0
LINE
  8
3
  6
CONTINUOUS
 62
3
 10
3.57571277231838
 20
1.42565605965554
 30
0.0
 11
3.57571277231838
 21
1.53392377619098
 31
0.0
  0
ARC
  8
3
  6
CONTINUOUS
 62
3
 10
3.65445292979868
 20
1.53392377619097
 30
0.0
 40
0.0787401574803042
 50
89.9999999999946
 51
179.999999999995
  0
LINE
  8
3
  6
CONTINUOUS
 62
3
 10
3.65445292979869
 20
1.61266393367128
 30
0.0
 11
4.02846867783019
 21
1.61266393367128
 31
0.0
  0
ARC
  8
3
  6
CONTINUOUS
 62
3
 10
4.02846867783019
 20
1.53392377619097
 30
0.0
 40
0.0787401574803042
 50
4.98795457537206E-12
 51
90.000000000005
  0
LINE
  8
3
  6
CONTINUOUS
 62
3
 10
4.1072088353105
 20
1.53392377619098
 30
0.0
 11
4.1072088353105
 21
1.42565605965554
 31
0.0
  0
ARC
  8
3
  6
CONTINUOUS
 62
3
 10
4.18594899279082
 20
1.42565605965554
 30
0.0
 40
0.0787401574803255
 50
179.999999999999
 51
269.999999999999
  0
LINE
  8
3
  6
CONTINUOUS
 62
3
 10
4.18594899279082
 20
1.34691590217522
 30
0.0
 11
5.52453166995617
 21
1.34691590217522
 31
0.0
  0
ARC
  8
3
  6
CONTINUOUS
 62
3
 10
5.52453166995617
 20
1.42565605965554
 30
0.0
 40
0.0787401574803184
 50
270.000000000005
 51
4.96802641244601E-12
  0
LINE
  8
3
  6
CONTINUOUS
 62
3
 10
5.60327182743648
 20
1.42565605965554
 30
0.0
 11
5.60327182743648
 21
1.53392377619098
 31
0.0
  0
ARC
  8
3
  6
CONTINUOUS
 62
3
 10
5.6820119849168
 20
1.53392377619096
 30
0.0
 40
0.0787401574803113
 50
89.9999999999895
 51
179.999999999989
  0
LINE
  8
3
  6
CONTINUOUS
 62
3
 10
5.68201198491681
 20
1.61266393367128
 30
0.0
 11
5.92413796916878
 21
1.61266393367128
 31
0.0
  0
ARC
  8
3
  6
CONTINUOUS
 62
3
 10
5.92413796916877
 20
1.6914040911516
 30
0.0
 40
0.0787401574803184
 50
270.000000000005
 51
4.96802641244601E-12
  0
LINE
  8
3
  6
CONTINUOUS
 62
3
 10
6.00287812664909
 20
1.6914040911516
 30
0.0
 11
6.00287812664909
 21
9.90006550847445
 31
0.0
  0
ARC
  8
3
  6
CONTINUOUS
 62
3
 10
5.92413796916879
 20
9.90006550847444
 30
0.0
 40
0.0787401574803047
 50
5.3878596303992E-12
 51
90.0000000000046
  0
LINE
  8
3
  6
CONTINUOUS
 62
3
 10
5.92413796916878
 20
9.97880566595474
 30
0.0
 11
5.68201198491681
 21
9.97880566595474
 31
0.0
  0
ARC
  8
3
  6
CONTINUOUS
 62
3
 10
5.68201198491681
 20
10.0575458234351
 30
0.0
 40
0.0787401574803255
 50
180
 51
270
  0
LINE
  8
3
  6
CONTINUOUS
 62
3
 10
5.60327182743648
 20
10.0575458234351
 30
0.0
 11
5.60327182743648
 21
10.1658135399705
 31
0.0
  0
ARC
  8
3
  6
CONTINUOUS
 62
3
 10
5.52453166995618
 20
10.1658135399705
 30
0.0
 40
0.0787401574803042
 50
4.99983195926065E-12
 51
90.000000000005
  0
LINE
  8
3
  6
CONTINUOUS
 62
3
 10
5.52453166995617
 20
10.2445536974508
 30
0.0
 11
4.18594899279082
 21
10.2445536974508
 31
0.0
  0
ARC
  8
3
  6
CONTINUOUS
 62
3
 10
4.18594899279081
 20
10.1658135399705
 30
0.0
 40
0.0787401574803113
 50
89.9999999999895
 51
179.999999999989
  0
LINE
  8
3
  6
CONTINUOUS
 62
3
 10
4.1072088353105
 20
10.1658135399705
 30
0.0
 11
4.1072088353105
 21
10.0575458234351
 31
0.0
  0
ARC
  8
3
  6
CONTINUOUS
 62
3
 10
4.02846867783018
 20
10.0575458234351
 30
0.0
 40
0.0787401574803184
 50
270.000000000005
 51
5.34417669969597E-12
  0
LINE
  8
3
  6
CONTINUOUS
 62
3
 10
4.02846867783019
 20
9.97880566595474
 30
0.0
 11
3.65445292979869
 21
9.97880566595474
 31
0.0
  0
ARC
  8
3
  6
CONTINUOUS
 62
3
 10
3.6544529297987
 20
10.0575458234351
 30
0.0
 40
0.0787401574803184
 50
179.999999999995
 51
269.999999999995
  0
LINE
  8
3
  6
CONTINUOUS
 62
3
 10
3.57571277231838
 20
10.0575458234351
 30
0.0
 11
3.57571277231838
 21
10.1658135399705
 31
0.0
  0
ARC
  8
3
  6
CONTINUOUS
 62
3
 10
3.49697261483808
 20
10.1658135399705
 30
0.0
 40
0.0787401574803042
 50
4.99983195926065E-12
 51
90.000000000005
  0
LINE
  8
3
  6
CONTINUOUS
 62
3
 10
3.49697261483807
 20
10.2445536974508
 30
0.0
 11
2.15838993767271
 21
10.2445536974508
 31
0.0
  0
ARC
  8
3
  6
CONTINUOUS
 62
3
 10
2.1583899376727
 20
10.1658135399705
 30
0.0
 40
0.0787401574803042
 50
89.9999999999946
 51
179.999999999995
  0
LINE
  8
3
  6
CONTINUOUS
 62
3
 10
2.07964978019239
 20
10.1658135399705
 30
0.0
 11
2.07964978019239
 21
10.0575458234351
 31
0.0
  0
ARC
  8
3
  6
CONTINUOUS
 62
3
 10
2.00090962271208
 20
10.0575458234351
 30
0.0
 40
0.0787401574803184
 50
270.000000000005
 51
5.34417669969597E-12
  0
LINE
  8
3
  6
CONTINUOUS
 62
3
 10
2.00090962271208
 20
9.97880566595474
 30
0.0
 11
1.42020096129477
 21
9.97880566595474
 31
0.0
  0
ARC
  8
3
  6
CONTINUOUS
 62
3
 10
1.42020096129475
 20
9.90006550847443
 30
0.0
 40
0.0787401574803113
 50
89.9999999999895
 51
179.999999999989
  0
LINE
  8
3
  6
CONTINUOUS
 62
3
 10
1.34146080381444
 20
9.90006550847445
 30
0.0
 11
1.34146080381444
 21
9.21601039036421
 31
0.0
  0
LINE
  8
3
  6
CONTINUOUS
 62
3
 10
1.34146080381444
 20
9.21601039036421
 30
0.0
 11
1.39141321489353
 21
9.21382942099594
 31
0.0
  0
LINE
  8
3
  6
CONTINUOUS
 62
3
 10
1.39141321489353
 20
9.21382942099594
 30
0.0
 11
0.959686934725955
 21
9.61004045044088
 31
0.0
  0
ARC
  8
3
  6
CONTINUOUS
 62
3
 10
1.02650017388295
 20
9.54322721127789
 30
0.0
 40
0.0944881889661361
 50
134.999999997427
 51
180.000000002573
  0
ARC
  8
3
  6
CONTINUOUS
 62
3
 10
1.02650017389319
 20
9.54322721127365
 30
0.0
 40
0.0944881889763778
 50
179.999999999999
 51
359.999999999999
  0
ARC
  8
3
  6
CONTINUOUS
 62
3
 10
1.0265001738967
 20
9.54322721128214
 30
0.0
 40
0.0944881889728635
 50
359.999999994854
 51
135.000000005144
  0
LINE
  8
3
  6
CONTINUOUS
 62
3
 10
0.959686934725955
 20
9.61004045044088
 30
0.0
 11
0.993466445106738
 21
9.57317658360038
 31
0.0
  0
LINE
  8
3
  6
CONTINUOUS
 62
3
 10
0.993466445106738
 20
9.57317658360038
 30
0.0
 11
0.293070014386925
 21
10.3192552766193
 31
0.0
  0
LINE
  8
3
  6
CONTINUOUS
 62
3
 10
0.293070014386925
 20
10.3192552766193
 30
0.0
 11
0.383503349264615
 21
10.4179459437514
 31
0.0
  0
ARC
  8
3
  6
CONTINUOUS
 62
3
 10
0.288851260441875
 20
10.3232938549371
 30
0.0
 40
0.133858267714051
 50
44.9999999974275
 51
180.000000002572
  0
ARC
  8
3
  6
CONTINUOUS
 62
3
 10
0.288851260444365
 20
10.3232938549311
 30
0.0
 40
0.133858267716541
 50
179.999999999999
 51
359.999999999999
  0
ARC
  8
3
  6
CONTINUOUS
 62
3
 10
0.288851260473383
 20
10.3232938549432
 30
0.0
 40
0.133858267687522
 50
359.999999994854
 51
45.0000000051447
  0
LINE
  8
3
  6
CONTINUOUS
 62
3
 10
0.383503349264615
 20
10.4179459437514
 30
0.0
 11
0.346639482424109
 21
10.3841664333706
 31
0.0
  0
LINE
  8
3
  6
CONTINUOUS
 62
3
 10
0.346639482424109
 20
10.3841664333706
 30
0.0
 11
0.779085564969487
 21
10.86685187557
 31
0.0
  0
LINE
  8
3
  6
CONTINUOUS
 62
3
 10
0.779085564969487
 20
10.86685187557
 30
0.0
 11
0.785628473074287
 21
10.7169946423327
 31
0.0
  0
LINE
  8
3
  6
CONTINUOUS
 62
3
 10
0.785628473074287
 20
10.7169946423327
 30
0.0
 11
1.19972852034988
 21
10.7169946423327
 31
0.0
  0
ARC
  8
3
  6
CONTINUOUS
 62
3
 10
1.19972852034987
 20
10.795734799813
 30
0.0
 40
0.0787401574803184
 50
270.000000000005
 51
4.96802641244601E-12
  0
LINE
  8
3
  6
CONTINUOUS
 62
3
 10
1.27846867783019
 20
10.795734799813
 30
0.0
 11
1.27846867783019
 21
11.2223600912146
 31
0.0
  0
ARC
  8
3
  6
CONTINUOUS
 62
3
 10
1.59342930775145
 20
11.2223600912146
 30
0.0
 40
0.314960629921266
 50
90.0000000000011
 51
180.000000000001
  0
LINE
  8
3
  6
CONTINUOUS
 62
3
 10
1.59342930775145
 20
11.5373207211359
 30
0.0
 11
5.63279938649161
 21
11.5373207211359
 31
0.0
  0
ARC
  8
3
  6
CONTINUOUS
 62
3
 10
5.6327993864916
 20
11.2223600912146
 30
0.0
 40
0.314960629921266
 50
359.999999999998
 51
89.9999999999985
  0
LINE
  8
3
  6
CONTINUOUS
 62
3
 10
5.94776001641287
 20
11.2223600912146
 30
0.0
 11
5.94776001641287
 21
10.795734799813
 31
0.0
  0
ARC
  8
3
  6
CONTINUOUS
 62
3
 10
6.02650017389319
 20
10.795734799813
 30
0.0
 40
0.0787401574803184
 50
179.999999999994
 51
269.999999999994
  0
ARC
  8
3
  6
CONTINUOUS
 62
3
 10
6.02650017389318
 20
10.4020340124114
 30
0.0
 40
0.314960629921253
 50
1.17128895761584E-12
 51
90.000000000001
  0
LINE
  8
3
  6
CONTINUOUS
 62
3
 10
6.34146080381444
 20
10.4020340124115
 30
0.0
 11
6.34146080381444
 21
1.18943558721459
 31
0.0
  0
ARC
  8
3
  6
CONTINUOUS
 62
3
 10
6.02650017389317
 20
1.18943558721459
 30
0.0
 40
0.314960629921266
 50
270.000000000001
 51
1.47662220703634E-12
  0
ARC
  8
3
  6
CONTINUOUS
 62
3
 10
6.02650017389317
 20
0.795734799813017
 30
0.0
 40
0.0787401574803042
 50
89.9999999999946
 51
179.999999999995
  0
LINE
  8
3
  6
CONTINUOUS
 62
3
 10
5.94776001641287
 20
0.795734799813024
 30
0.0
 11
5.94776001641287
 21
0.369109508415383
 31
0.0
  0
ARC
  8
3
  6
CONTINUOUS
 62
3
 10
5.6327993864916
 20
0.369109508415376
 30
0.0
 40
0.314960629921266
 50
270.000000000001
 51
1.57839995684317E-12
  0
LINE
  8
3
  6
CONTINUOUS
 62
3
 10
5.63279938649161
 20
0.0541488784941093
 30
0.0
 11
1.59342930775145
 21
0.0541488784941093
 31
0.0
  0
ARC
  8
3
  6
CONTINUOUS
 62
3
 10
1.59342930775146
 20
0.369109508415376
 30
0.0
 40
0.314960629921266
 50
179.999999999999
 51
269.999999999999
  0
LINE
  8
3
  6
CONTINUOUS
 62
3
 10
1.27846867783019
 20
0.369109508415383
 30
0.0
 11
1.27846867783019
 21
0.795734799813024
 31
0.0
  0
ARC
  8
3
  6
CONTINUOUS
 62
3
 10
1.19972852034988
 20
0.795734799813018
 30
0.0
 40
0.0787401574803042
 50
4.99983195926065E-12
 51
90.000000000005
  0
LINE
  8
3
  6
CONTINUOUS
 62
3
 10
1.19972852034988
 20
0.874474957293321
 30
0.0
 11
0.371528425798698
 21
0.874474957293321
 31
0.0
  0
ARC
  8
3
  6
CONTINUOUS
 62
3
 10
0.371528425798706
 20
1.18943558721459
 30
0.0
 40
0.314960629921266
 50
179.999999999999
 51
269.999999999999
  0
LINE
  8
3
  6
CONTINUOUS
 62
3
 10
0.0565677958774389
 20
1.18943558721459
 30
0.0
 11
0.0565677958774389
 21
10.4020340124115
 31
0.0
  0
ARC
  8
3
  6
CONTINUOUS
 62
3
 10
0.371528425798691
 20
10.4020340124114
 30
0.0
 40
0.314960629921252
 50
89.9999999999985
 51
179.999999999999
  0
LINE
  8
3
  6
CONTINUOUS
 62
3
 10
0.371528425798698
 20
10.7169946423327
 30
0.0
 11
0.785628473074287
 21
10.7169946423327
 31
0.0
  0
LINE
  8
3
  6
CONTINUOUS
 62
3
 10
0.785628473074287
 20
10.7169946423327
 30
0.0
 11
0.787809442442554
 21
10.7669470534118
 31
0.0
  0
LINE
  8
3
  6
CONTINUOUS
 62
3
 10
0.787809442442554
 20
10.7669470534118
 30
0.0
 11
0.0565677958774389
 21
11.6373207211359
 31
0.0
  0
ENDSEC
  0
EOF
